<svg width="26" height="26" fill="none" xmlns="http://www.w3.org/2000/svg"><path d="M13 26c7.18 0 13-5.82 13-13S20.18 0 13 0 0 5.82 0 13s5.82 13 13 13z" fill="#5F98D1"/><path d="M21.116 7.489H4.852l5.891 6.134 1.7 1.722c-.925-.212-.982-.344-1.392-.678-.215-.176-.63-.653-1.261-1.297L4.48 7.946v10.097l.42.42-.048.049 7.472 7.47c.224.012.45.018.676.018 7.18 0 13-5.82 13-13 0-.216-.006-.43-.016-.643L21.115 7.49z" fill="#3A6DA1"/><path d="M4.48 7.947v10.096l4.923-5.069L4.48 7.947zm17.04 0v10.096l-4.899-5.048 4.9-5.048zM4.853 7.489h16.262l-6.391 6.655a2.413 2.413 0 01-3.48 0L4.853 7.489z" fill="#fff"/><path d="M15.093 14.498a2.938 2.938 0 01-2.109.899c-.792 0-1.56-.328-2.108-.899L9.79 13.369l-4.938 5.143h16.262l-4.938-5.143-1.084 1.129z" fill="#fff"/></svg>