<svg width="26" height="26" fill="none" xmlns="http://www.w3.org/2000/svg"><path d="M13 26c7.18 0 13-5.82 13-13S20.18 0 13 0 0 5.82 0 13s5.82 13 13 13z" fill="#4D76A1"/><path fill-rule="evenodd" clip-rule="evenodd" d="M12.509 18.702h1.02s.309-.034.466-.204c.145-.156.14-.448.14-.448s-.02-1.37.616-1.57c.626-.2 1.43 1.322 2.283 1.908.645.442 1.134.345 1.134.345l2.28-.031s1.192-.074.627-1.012c-.046-.076-.33-.693-1.695-1.96-1.43-1.327-1.238-1.113.484-3.408 1.049-1.397 1.468-2.25 1.337-2.616-.125-.348-.896-.256-.896-.256l-2.567.016s-.19-.026-.331.058c-.138.083-.227.276-.227.276s-.406 1.081-.948 2.001c-1.143 1.94-1.6 2.043-1.787 1.923-.434-.281-.326-1.129-.326-1.73 0-1.881.286-2.666-.555-2.869-.28-.067-.485-.111-1.198-.119-.916-.01-1.691.003-2.13.218-.292.143-.517.462-.38.48.17.023.554.104.758.381.263.358.253 1.162.253 1.162s.151 2.214-.353 2.489c-.346.188-.82-.197-1.84-1.958-.521-.902-.915-1.898-.915-1.898s-.076-.187-.212-.286c-.165-.121-.394-.16-.394-.16l-2.44.016s-.366.01-.5.17c-.12.141-.01.434-.01.434s1.91 4.468 4.072 6.719c1.983 2.064 4.234 1.929 4.234 1.929z" fill="#fff"/></svg>