<svg width="18" height="18" fill="none" xmlns="http://www.w3.org/2000/svg"><path d="M16.5 0h-15A1.502 1.502 0 000 1.5v15A1.502 1.502 0 001.5 18h15a1.502 1.502 0 001.5-1.5v-15A1.502 1.502 0 0016.5 0zm-3 12.6a.3.3 0 00-.3.3v.9H9.3v-3h.9a.3.3 0 100-.6h-.9V7.5h3.9v.9a.3.3 0 00.6 0v-.9h3.6v2.7h-.9a.3.3 0 100 .6h.9v3h-3.6v-.9a.3.3 0 00-.3-.3zm-8.4 1.2v-.922a2.247 2.247 0 000-4.456V7.5h3.6v2.7h-.9a.3.3 0 100 .6h.9v3H5.1zm-4.5 0v-3h.9a.3.3 0 000-.6H.6V7.5h3.9v.922a2.247 2.247 0 000 4.456v.922H.6zm4.2-1.5a1.65 1.65 0 110-3.3 1.65 1.65 0 010 3.3zm4.5-8.4h.9a.3.3 0 000-.6h-.9V.6h3.9v.922a2.247 2.247 0 000 4.456V6.9H9.3v-3zm4.2 1.5a1.65 1.65 0 110-3.3 1.65 1.65 0 010 3.3zm3.9-3.9v1.8h-.9a.3.3 0 100 .6h.9v3h-3.6v-.922a2.248 2.248 0 000-4.456V.6h2.7a.9.9 0 01.9.9zM1.5.6h3v.9a.3.3 0 00.6 0V.6h3.6v2.7h-.9a.3.3 0 100 .6h.9v3H5.1V6a.3.3 0 10-.6 0v.9H.6v-3h.9a.3.3 0 000-.6H.6V1.5a.9.9 0 01.9-.9zm15 16.8h-15a.901.901 0 01-.9-.9v-2.1h16.8v2.1a.9.9 0 01-.9.9z" fill="#333"/><path d="M3 15a.9.9 0 100 1.8.9.9 0 000-1.8zm0 1.2a.3.3 0 110-.6.3.3 0 010 .6zM5.4 15a.9.9 0 100 1.8.9.9 0 000-1.8zm0 1.2a.3.3 0 110-.6.3.3 0 010 .6zM7.8 15a.9.9 0 100 1.8.9.9 0 000-1.8zm0 1.2a.3.3 0 110-.6.3.3 0 010 .6zm2.4-1.2a.9.9 0 100 1.8.9.9 0 000-1.8zm0 1.2a.3.3 0 110-.6.3.3 0 010 .6zm4.65-5.55a1.35 1.35 0 10-2.7 0 1.35 1.35 0 002.7 0zm-1.35.75a.75.75 0 110-1.5.75.75 0 010 1.5zM4.8 5.1a1.35 1.35 0 100-2.7 1.35 1.35 0 000 2.7zm0-2.1a.75.75 0 110 1.5.75.75 0 010-1.5z" fill="#333"/></svg>