<svg width="18" height="18" fill="none" xmlns="http://www.w3.org/2000/svg"><path d="M17.734 0H.266A.266.266 0 000 .266v17.468A.266.266 0 00.266 18h17.468a.266.266 0 00.266-.266V.266A.266.266 0 0017.734 0zm-.266.532v2.936H.532V.532h16.936zM.532 17.468V4h16.936v13.468H.532z" fill="#222"/><path d="M16.367 6.797H1.633a.266.266 0 00-.266.266v8.734a.266.266 0 00.266.266h14.734a.266.266 0 00.266-.266V7.063a.266.266 0 00-.266-.266zm-11.215 6.36H3.615c.236-.993.747-1.607 1.234-1.607.25 0 .503.158.723.447a4.143 4.143 0 00-.42 1.16zm.957-1.03c.24-.372.53-.577.816-.577.249 0 .502.157.722.447a4.13 4.13 0 00-.42 1.16H5.693c.08-.364.22-.712.415-1.03zm2.076 0c.24-.372.53-.577.814-.577.25 0 .503.157.723.447a4.143 4.143 0 00-.418 1.16H7.77c.08-.364.22-.712.416-1.03zm2.075 0c.24-.372.53-.577.814-.577.25 0 .504.157.725.447-.198.363-.34.754-.421 1.16H9.846c.08-.364.22-.712.415-1.03zm2.077 0c.239-.372.528-.577.814-.577.487 0 .999.613 1.233 1.606h-2.463c.08-.364.221-.712.417-1.03v.001zm.814-1.109a1.397 1.397 0 00-1.037.529 1.403 1.403 0 00-1.039-.528 1.401 1.401 0 00-1.037.528A1.402 1.402 0 009 11.02a1.4 1.4 0 00-1.037.528 1.401 1.401 0 00-1.038-.528 1.403 1.403 0 00-1.039.528 1.398 1.398 0 00-1.037-.528c-.824 0-1.508.877-1.775 2.137H1.899V9.704H16.1v3.452h-1.175c-.267-1.26-.95-2.137-1.774-2.137h-.001zM16.1 7.33v1.843H1.9V7.33h14.2zM1.9 13.689h1.088a5.775 5.775 0 00.087 1.843H1.9v-1.844zm1.584.653c0-.218.013-.437.04-.654h1.543a5.826 5.826 0 00.084 1.843H3.618a5.183 5.183 0 01-.135-1.189zm2.21 1.19a5.414 5.414 0 01-.094-1.843h1.54a5.778 5.778 0 00.085 1.843h-1.53zm2.077 0a5.193 5.193 0 01-.135-1.19c0-.219.013-.437.04-.654h1.542a5.825 5.825 0 00.084 1.843H7.77zm2.075 0a5.412 5.412 0 01-.094-1.843h1.54a5.775 5.775 0 00.085 1.843h-1.53zm2.667 0h-.591a5.192 5.192 0 01-.135-1.19c0-.219.013-.437.04-.654h2.652a5.24 5.24 0 01-.096 1.844h-1.87zm2.414 0a5.775 5.775 0 00.087-1.844h1.089v1.843h-1.176zM10.289 2.266h4.28a.266.266 0 000-.532h-4.28a.266.266 0 000 .532zm-6.995.456a.721.721 0 100-1.443.721.721 0 000 1.443zm0-.912a.19.19 0 110 .38.19.19 0 010-.38zm1.745.912a.721.721 0 100-1.443.721.721 0 000 1.443zm0-.912a.19.19 0 110 .38.19.19 0 010-.38zm1.745.912a.721.721 0 100-1.443.721.721 0 000 1.443zm0-.912a.19.19 0 110 .38.19.19 0 010-.38z" fill="#222"/></svg>