<svg width="18" height="19" fill="none" xmlns="http://www.w3.org/2000/svg"><path d="M10.201 7.625a4.16 4.16 0 01-.576-.723 4.043 4.043 0 01-.562-2.835 4.08 4.08 0 01.556-1.476c.048-.073.097-.149.148-.222a.313.313 0 00-.055-.424 1.623 1.623 0 00-1.029-.367H1.608C.72 1.578 0 2.287 0 3.16v12.99c0 .875.72 1.584 1.608 1.584h7.075c.888 0 1.608-.71 1.608-1.584V7.843a.314.314 0 00-.09-.218zm-.553 8.524c0 .525-.432.95-.965.95H1.608a.958.958 0 01-.965-.95V3.161c0-.524.432-.95.965-.95h7.075a.978.978 0 01.386.076 4.708 4.708 0 00-.643 1.679 4.677 4.677 0 00.656 3.275c.048.076.096.152.148.219.127.18.266.352.418.513v8.176z" fill="#222"/><path d="M3.216 17.1H1.608a.32.32 0 00-.322.316v.634c0 .524.432.95.965.95h.322a.958.958 0 00.965-.95v-.634a.32.32 0 00-.322-.317zm-.322.95a.32.32 0 01-.321.316H2.25a.32.32 0 01-.321-.316v-.317h.964v.317zm5.789-.95H7.075a.32.32 0 00-.322.316v.634c0 .524.432.95.965.95h.322a.958.958 0 00.965-.95v-.634a.32.32 0 00-.322-.317zm-.322.95a.32.32 0 01-.321.316h-.322a.32.32 0 01-.321-.316v-.317h.964v.317zM9.493 6.963H.322A.32.32 0 000 7.279a.32.32 0 00.322.317h9.172a.32.32 0 00.321-.317.32.32 0 00-.322-.316zM1.608 8.23a.32.32 0 00-.322.316v1.901a.32.32 0 00.322.317.32.32 0 00.322-.317v-1.9a.32.32 0 00-.322-.317zm0-4.435a.32.32 0 00-.322.317v1.9a.32.32 0 00.322.317.32.32 0 00.322-.317v-1.9a.32.32 0 00-.322-.317z" fill="#222"/><path d="M15.964.875C13.79-.642 10.78-.136 9.24 2.005a4.707 4.707 0 00-.16 5.236 4.768 4.768 0 001.126 1.239 4.818 4.818 0 002.98 1.017 4.822 4.822 0 003.926-1.998A4.706 4.706 0 0015.965.875zm.517 6.393c-1.421 1.792-4.048 2.111-5.868.711a3.816 3.816 0 01-.859-.886 4.043 4.043 0 01-.75-2.347c.001-.227.022-.453.062-.675a4.08 4.08 0 01.556-1.477c.049-.072.097-.149.148-.221A4.2 4.2 0 0113.186.627c2.309 0 4.18 1.844 4.18 4.118a4.079 4.079 0 01-.885 2.523z" fill="#222"/><path d="M13.185 1.26a.32.32 0 00-.321.317v6.336a.32.32 0 00.321.317.32.32 0 00.322-.317V1.577a.32.32 0 00-.322-.316z" fill="#222"/><path d="M13.366 2.265l-.965-.634a.325.325 0 00-.42.083.314.314 0 00.063.443l.965.634a.323.323 0 00.444-.086.314.314 0 00-.087-.44z" fill="#222"/><path d="M14.41 1.743a.324.324 0 00-.44-.112l-.965.634a.316.316 0 00.18.58c.063 0 .125-.02.177-.054l.965-.634a.314.314 0 00.084-.414zm-.954 5.019a.325.325 0 00-.45-.062l-.966.633a.316.316 0 00.18.58c.063 0 .125-.02.177-.054l.965-.633a.314.314 0 00.094-.464z" fill="#222"/><path d="M14.33 7.333l-.964-.633a.325.325 0 00-.421.082.314.314 0 00.063.444l.965.633a.325.325 0 00.445-.086.314.314 0 00-.088-.44zm2.071-2.905H9.97a.32.32 0 00-.321.317.32.32 0 00.321.317h6.432a.32.32 0 00.322-.317.32.32 0 00-.322-.317z" fill="#222"/><path d="M11.118 4.508a.325.325 0 00-.45.063l-.644.95a.314.314 0 00-.053.173.32.32 0 00.32.318.323.323 0 00.267-.139l.643-.95a.314.314 0 00-.083-.415z" fill="#222"/><path d="M11.201 4.568l-.643-.95a.325.325 0 00-.42-.083.314.314 0 00-.114.434l.643.95a.323.323 0 00.448.089.314.314 0 00.086-.44zm5.146.95l-.643-.95a.325.325 0 00-.421-.082.314.314 0 00-.113.434l.643.95a.323.323 0 00.448.088.314.314 0 00.086-.44z" fill="#222"/><path d="M16.263 3.558a.325.325 0 00-.45.063l-.643.95a.314.314 0 00-.053.173.32.32 0 00.32.318.323.323 0 00.267-.14l.643-.95a.314.314 0 00-.084-.414zm-1.244 2.549L11.803 2.94a.325.325 0 00-.419 0 .313.313 0 00-.035.446l3.216 3.168a.324.324 0 00.45.001.314.314 0 00.004-.448z" fill="#222"/><path d="M15.018 2.971a.325.325 0 00-.453-.034L11.35 6.104a.315.315 0 00-.095.227.32.32 0 00.549.22l3.215-3.168a.313.313 0 000-.412z" fill="#222"/></svg>