<svg width="18" height="14" fill="none" xmlns="http://www.w3.org/2000/svg"><path d="M17.191 0H.81a.782.782 0 00-.572.255A.904.904 0 000 .869v10.175c0 .23.086.452.237.614a.782.782 0 00.572.255h.597v.718c0 .23.086.451.237.614a.782.782 0 00.572.255h2.402c.215 0 .42-.092.572-.255a.904.904 0 00.237-.614v-.718h7.148v.718c0 .23.086.451.237.614a.782.782 0 00.572.255h2.402c.214 0 .42-.092.572-.255a.904.904 0 00.237-.614v-.718h.597c.215 0 .42-.092.572-.255a.904.904 0 00.237-.614V.87a.904.904 0 00-.237-.614A.782.782 0 0017.19 0zM4.934 12.631c0 .09-.034.177-.093.24-.06.064-.14.1-.224.1H2.215a.306.306 0 01-.224-.1.354.354 0 01-.093-.24v-.718h3.036v.718zm11.168 0c0 .09-.034.177-.093.24-.06.064-.14.1-.224.1h-2.402a.306.306 0 01-.224-.1.353.353 0 01-.093-.24v-.718h3.036v.718zm1.406-1.587c0 .09-.034.177-.093.24-.06.064-.14.1-.224.1H.81a.306.306 0 01-.224-.1.354.354 0 01-.093-.24V.87c0-.09.034-.177.093-.24.06-.064.14-.1.224-.1h16.38c.084 0 .165.036.224.1.06.063.093.15.093.24v10.175z" fill="#222"/><path d="M15.686 1.511h-.538a.879.879 0 00-.635.29c-.168.183-.262.43-.262.686 0 .257.094.503.262.686a.879.879 0 00.635.29h.538a.879.879 0 00.634-.29c.168-.183.263-.429.263-.686a1.02 1.02 0 00-.262-.686.879.879 0 00-.635-.29zm0 1.423h-.538a.402.402 0 01-.294-.13.465.465 0 01-.122-.317c0-.118.043-.232.122-.316a.402.402 0 01.294-.13h.538c.109.001.213.05.289.133a.467.467 0 01-.001.626.403.403 0 01-.288.134zm0 1.513h-.538a.877.877 0 00-.642.286c-.17.183-.266.43-.266.69 0 .259.095.507.266.69.17.183.4.286.642.286h.538c.24 0 .472-.103.642-.286.17-.183.266-.431.266-.69 0-.26-.096-.507-.266-.69a.877.877 0 00-.642-.286zm0 1.423h-.538a.402.402 0 01-.294-.131.465.465 0 01-.122-.316c0-.119.044-.233.122-.316a.402.402 0 01.294-.131h.538c.11 0 .216.047.294.13a.465.465 0 01.122.317.465.465 0 01-.122.316.402.402 0 01-.294.13zm-2.608-4.359H1.652a.238.238 0 00-.174.078.275.275 0 00-.072.187v8.362c0 .07.026.137.072.187a.24.24 0 00.174.077h11.426a.238.238 0 00.174-.077.275.275 0 00.072-.187V1.776a.275.275 0 00-.072-.187.238.238 0 00-.174-.078zm-.246 8.362H1.898V2.04h10.934v7.833z" fill="#222"/><path d="M6.266 7.402a.231.231 0 00.096-.02.246.246 0 00.08-.06c.763-.833 2.008-2.184 2.16-2.328a.263.263 0 00.094-.13.283.283 0 00.003-.166.265.265 0 00-.09-.135.235.235 0 00-.145-.051c-.138 0-.138 0-2.373 2.44a.283.283 0 00-.051.288.25.25 0 00.226.162zm-2.363-.486a.23.23 0 00.176-.079c.44-.48 1.16-1.262 1.265-1.363a.265.265 0 00.087-.132.283.283 0 000-.163.264.264 0 00-.089-.131.235.235 0 00-.144-.05c-.123 0-.123 0-1.47 1.47a.283.283 0 00-.05.287.26.26 0 00.09.117.23.23 0 00.135.044zm5.629 0a.23.23 0 00.175-.079 92.5 92.5 0 011.265-1.363.265.265 0 00.088-.132.284.284 0 000-.163.265.265 0 00-.09-.131.235.235 0 00-.143-.05c-.124 0-.124 0-1.47 1.47a.283.283 0 00-.05.287.26.26 0 00.09.117.23.23 0 00.135.044zm6.816.466h-1.862a.238.238 0 00-.174.078.275.275 0 00-.072.187c0 .07.025.137.072.187.046.05.108.077.174.077h1.862a.238.238 0 00.174-.077.275.275 0 00.072-.187.275.275 0 00-.072-.187.238.238 0 00-.174-.078zm0 1.512h-1.862a.231.231 0 00-.095.02.246.246 0 00-.08.058.268.268 0 00-.071.187.281.281 0 00.072.187.233.233 0 00.174.077h1.862a.238.238 0 00.174-.077.275.275 0 00.072-.187.275.275 0 00-.072-.187.238.238 0 00-.174-.078z" fill="#222"/></svg>