<svg width="18" height="18" fill="none" xmlns="http://www.w3.org/2000/svg"><path d="M2.813 15.75h12.374a.281.281 0 00.282-.281V5.344a.281.281 0 00-.281-.282H2.812a.281.281 0 00-.28.282v10.125a.281.281 0 00.28.281zM4.5 5.625h9a.281.281 0 010 .563h-9a.281.281 0 110-.563zm-1.406 0h.61A.843.843 0 004.5 6.75h9a.843.843 0 00.795-1.125h.611v8.438h-1.969v-1.174a.844.844 0 00-.28-1.639h-.427a2.526 2.526 0 00-2.105-1.125h-2.25A2.541 2.541 0 005.77 11.25h-.426a.844.844 0 00-.282 1.64v1.172H3.095V5.626zm2.25 6.75a.281.281 0 110-.563h7.312a.281.281 0 110 .563H5.344zm7.031.563v1.124h-6.75v-1.124h6.75zM6.498 11.25c.368-.36.862-.562 1.377-.563h2.25c.515 0 1.01.202 1.377.563H6.498zm-3.404 3.375h11.812v.563H3.094v-.563z" fill="#222"/><path d="M16.453.563H1.547a.985.985 0 00-.984.984v14.906a.986.986 0 00.984.985h14.906a.986.986 0 00.985-.985V1.547a.986.986 0 00-.985-.984zm.422 15.89a.422.422 0 01-.422.422H1.547a.422.422 0 01-.422-.422V4.5h15.75v11.953zm0-12.515H1.125V1.546a.422.422 0 01.422-.422h14.906a.422.422 0 01.422.422v2.39z" fill="#222"/><path d="M9 1.688a.844.844 0 100 1.687.844.844 0 000-1.688zm0 1.125a.281.281 0 110-.563.281.281 0 010 .563zM6.188 1.688a.844.844 0 100 1.687.844.844 0 000-1.688zm0 1.125a.281.281 0 110-.563.281.281 0 010 .563zm5.625-1.125a.844.844 0 100 1.687.844.844 0 000-1.688zm0 1.125a.282.282 0 110-.564.282.282 0 010 .563zM8.86 9.281a.281.281 0 10.562 0 1.007 1.007 0 00-.184-.595c-.063-.1-.097-.154-.097-.296 0-.141.034-.195.097-.295.122-.174.187-.382.184-.595a.281.281 0 10-.563 0c0 .141-.034.196-.097.295a1.055 1.055 0 000 1.191c.063.1.097.154.097.295zm1.546 0a.281.281 0 10.563 0 1.007 1.007 0 00-.184-.595c-.063-.1-.098-.154-.098-.296 0-.141.035-.195.098-.295.122-.174.187-.382.184-.595a.281.281 0 00-.563 0c0 .141-.034.196-.097.295a1.055 1.055 0 000 1.191c.063.1.097.154.097.295zm-3.094 0a.281.281 0 10.563 0 1.007 1.007 0 00-.184-.595c-.063-.1-.097-.154-.097-.296 0-.141.034-.195.097-.295.123-.174.187-.382.184-.595a.281.281 0 10-.563 0c0 .141-.034.196-.097.295a1.055 1.055 0 000 1.191c.063.1.097.154.097.295z" fill="#222"/></svg>