<svg width="18" height="18" fill="none" xmlns="http://www.w3.org/2000/svg"><path d="M17.066 14.21H2.24l4.44-4.67h3.067a.336.336 0 100-.672H6.87V.84a.336.336 0 10-.672 0v8.231L1.312 14.21H.934a.935.935 0 00-.934.933v1.42c0 .514.419.933.934.933h16.132a.935.935 0 00.934-.934v-1.419a.935.935 0 00-.934-.934zm.262 2.352a.262.262 0 01-.262.262H.934a.262.262 0 01-.262-.262v-1.419c0-.144.117-.261.262-.261h16.132c.145 0 .262.117.262.261v1.42zM11.128.84a.336.336 0 01.673 0v8.231l3.792 3.987a.336.336 0 01-.488.463C10.9 9.1 11.145 9.401 11.13 9.235c-.002-.027 0-8.332 0-8.395zm1.42 15.013c0 .185-.15.336-.336.336h-.15a.336.336 0 010-.672h.15c.185 0 .336.15.336.336zm1.493 0c0 .185-.15.336-.336.336h-.149a.336.336 0 010-.672h.15c.185 0 .335.15.335.336zm1.494 0c0 .185-.15.336-.336.336h-.15a.336.336 0 010-.672h.15c.186 0 .336.15.336.336z" fill="#222"/></svg>