<svg width="18" height="25" fill="none" xmlns="http://www.w3.org/2000/svg"><path d="M14.675 7.228a.834.834 0 00-1.167 0c-.519.51-.148 1.385.583 1.385.73 0 1.103-.874.584-1.385zm1.499-1.474a.412.412 0 010 .59.429.429 0 01-.6 0 2.125 2.125 0 00-2.966 0 .429.429 0 01-.6 0 .412.412 0 010-.59 2.984 2.984 0 014.166 0zm1.402-.961a.426.426 0 01-.3-.122 4.556 4.556 0 00-6.37 0 .429.429 0 01-.6 0 .412.412 0 010-.59c2.093-2.056 5.478-2.056 7.57 0 .267.264.074.712-.3.712zm-3.061 5.624v12.5c0 1.148-.95 2.083-2.119 2.083H2.119C.951 25 0 24.065 0 22.917V2.083C0 .935.95 0 2.119 0h10.277c.549 0 1.07.206 1.466.579a.41.41 0 01.012.589.429.429 0 01-.599.013 1.277 1.277 0 00-.88-.348H2.12c-.701 0-1.271.561-1.271 1.25v20.834c0 .689.57 1.25 1.27 1.25h10.278c.7 0 1.271-.561 1.271-1.25V10.833H3.337a.42.42 0 01-.423-.416c0-.23.19-.417.423-.417h10.754a.42.42 0 01.424.417zM3.337 4.427a.42.42 0 01.424.417v1.979a.42.42 0 01-.424.417.42.42 0 01-.423-.417v-1.98c0-.23.19-.416.423-.416zm-.423 14.896v-5.417c0-.23.19-.416.423-.416a.42.42 0 01.424.416v5.417a.42.42 0 01-.424.417.42.42 0 01-.423-.417z" fill="#222"/></svg>