<svg width="18" height="22" fill="none" xmlns="http://www.w3.org/2000/svg"><path d="M16.74 0H1.26a1.27 1.27 0 00-.89.364C.132.597 0 .913 0 1.242v19.516c0 .33.133.645.37.878.236.233.556.364.89.364h15.48c.334 0 .654-.131.89-.364.237-.233.37-.549.37-.878V1.242c0-.33-.133-.645-.37-.878A1.27 1.27 0 0016.74 0zm.54 20.758a.529.529 0 01-.158.376.544.544 0 01-.382.156H1.26a.544.544 0 01-.382-.156.529.529 0 01-.158-.376v-16.5h16.56v16.5zm0-17.21H.72V1.242C.72 1.1.777.965.878.866A.544.544 0 011.26.71h15.48a.533.533 0 01.54.532v2.306z" fill="#222"/><path d="M9 7.452c-.997 0-1.971.29-2.8.837a4.984 4.984 0 00-1.856 2.23 4.901 4.901 0 00-.287 2.87 4.946 4.946 0 001.38 2.543 5.063 5.063 0 002.58 1.36 5.108 5.108 0 002.912-.283 5.025 5.025 0 002.262-1.83 4.922 4.922 0 00.849-2.76 4.937 4.937 0 00-1.478-3.51A5.083 5.083 0 009 7.451zm0 9.225c-.854 0-1.69-.25-2.4-.717a4.272 4.272 0 01-1.591-1.911 4.201 4.201 0 01-.246-2.46 4.24 4.24 0 011.182-2.18 4.34 4.34 0 012.212-1.166 4.379 4.379 0 012.496.242c.79.323 1.464.868 1.939 1.569.475.7.728 1.523.728 2.365a4.232 4.232 0 01-1.267 3.01A4.356 4.356 0 019 16.677zM1.44 3.194h1.44a.363.363 0 00.254-.104.352.352 0 00.106-.251v-1.42a.352.352 0 00-.106-.25.363.363 0 00-.254-.104H1.44a.363.363 0 00-.255.104.352.352 0 00-.105.25v1.42c0 .094.038.184.105.25.068.067.16.105.255.105zm.36-1.42h.72v.71H1.8v-.71zm2.16 1.42H5.4a.363.363 0 00.255-.104.352.352 0 00.105-.251v-1.42a.352.352 0 00-.105-.25.363.363 0 00-.255-.104H3.96a.363.363 0 00-.254.104.352.352 0 00-.106.25v1.42a.36.36 0 00.36.355zm.36-1.42h.72v.71h-.72v-.71zm2.16 1.42h1.44a.363.363 0 00.254-.104.352.352 0 00.106-.251v-1.42a.352.352 0 00-.106-.25.363.363 0 00-.254-.104H6.48a.363.363 0 00-.255.104.352.352 0 00-.105.25v1.42c0 .094.038.184.105.25.068.067.16.105.255.105zm.36-1.42h.72v.71h-.72v-.71z" fill="#222"/><path d="M15.66 9.935h-.54a.36.36 0 00-.139.028 6.418 6.418 0 00-2.388-2.856A6.558 6.558 0 009 6.032c-3.573 0-6.48 2.866-6.48 6.387 0 3.522 2.907 6.387 6.48 6.387a6.558 6.558 0 003.593-1.074 6.418 6.418 0 002.388-2.856.362.362 0 00.139.027h.54c.334 0 .654-.131.89-.364a1.23 1.23 0 00.37-.878v-2.484c0-.329-.133-.645-.37-.877a1.271 1.271 0 00-.89-.365zM9 18.097a5.82 5.82 0 01-3.2-.957 5.696 5.696 0 01-2.122-2.548 5.602 5.602 0 01-.327-3.28 5.653 5.653 0 011.576-2.907 5.786 5.786 0 012.95-1.554 5.838 5.838 0 013.327.323 5.743 5.743 0 012.585 2.091 5.62 5.62 0 01.971 3.154 5.643 5.643 0 01-1.689 4.013A5.809 5.809 0 019 18.097zm7.2-4.436a.529.529 0 01-.158.377.544.544 0 01-.382.155h-.18v-3.548h.18c.143 0 .28.056.382.156a.53.53 0 01.158.376v2.484z" fill="#222"/></svg>