<svg width="28" height="25" viewBox="0 0 28 25" fill="none" xmlns="http://www.w3.org/2000/svg">
<path d="M0.644531 5.62109H4.59765C4.95298 5.62109 5.24218 5.91029 5.24218 6.26562C5.24218 6.32118 5.16061 5.56688 6.47049 17.3564C5.75227 17.6389 5.24218 18.3388 5.24218 19.1562C5.24218 20.2224 6.10962 21.0893 7.17578 21.0893H7.93109C7.85958 21.2911 7.82031 21.5085 7.82031 21.7344C7.82031 22.8005 8.68774 23.668 9.7539 23.668C10.8201 23.668 11.6875 22.8005 11.6875 21.7344C11.6875 21.5085 11.6482 21.2911 11.5767 21.0893H15.6656C15.594 21.2911 15.5547 21.5085 15.5547 21.7344C15.5547 22.8005 16.4221 23.668 17.4883 23.668C18.5544 23.668 19.4219 22.8005 19.4219 21.7344C19.4219 20.6682 18.5544 19.8008 17.4883 19.8008H7.17578C6.82045 19.8008 6.53125 19.5116 6.53125 19.1562C6.53125 18.8009 6.82045 18.5117 7.17578 18.5117H18.9744C19.9236 18.5117 20.7257 17.8323 20.8816 16.896L21.9913 10.2387C22.0223 10.0519 21.9698 9.86073 21.8472 9.71622C21.7247 9.5717 21.545 9.48828 21.3555 9.48828H19.4219V6.26562C19.4219 5.90962 19.1333 5.62109 18.7773 5.62109H13.6211C13.2651 5.62109 12.9766 5.90962 12.9766 6.26562V6.91016H9.7539C9.3979 6.91016 9.10937 7.19868 9.10937 7.55469V9.48828H6.89329L6.53091 6.22635C6.50976 5.17831 5.65072 4.33203 4.59765 4.33203H0.644531C0.288528 4.33203 0 4.62056 0 4.97656C0 5.33257 0.288528 5.62109 0.644531 5.62109ZM10.3984 21.7344C10.3984 22.0897 10.1092 22.3789 9.7539 22.3789C9.39857 22.3789 9.10937 22.0897 9.10937 21.7344C9.10937 21.379 9.39857 21.0893 9.7539 21.0893C10.1092 21.0893 10.3984 21.379 10.3984 21.7344ZM17.4883 22.3789C17.1329 22.3789 16.8437 22.0897 16.8437 21.7344C16.8437 21.3779 17.1329 21.0898 17.4883 21.0898C17.8436 21.0898 18.1328 21.379 18.1328 21.7344C18.1328 22.0897 17.8436 22.3789 17.4883 22.3789ZM14.2656 6.91016H18.1328V9.48828H14.2656V6.91016ZM10.3984 8.19922H12.9766V9.48828H10.3984V8.19922ZM20.5946 10.7773L19.6102 16.684C19.5582 16.9962 19.2908 17.2227 18.9744 17.2227H7.75267L7.03646 10.7773H20.5946Z" fill="white"/>
<path d="M9.75391 15.9336C10.1099 15.9336 10.3984 15.6451 10.3984 15.2891V12.7109C10.3984 12.3549 10.1099 12.0664 9.75391 12.0664C9.3979 12.0664 9.10938 12.3549 9.10938 12.7109V15.2891C9.10938 15.6451 9.3979 15.9336 9.75391 15.9336Z" fill="white"/>
<path d="M13.6211 15.9336C13.9771 15.9336 14.2656 15.6451 14.2656 15.2891V12.7109C14.2656 12.3549 13.9771 12.0664 13.6211 12.0664C13.2651 12.0664 12.9766 12.3549 12.9766 12.7109V15.2891C12.9766 15.6451 13.2651 15.9336 13.6211 15.9336Z" fill="white"/>
<path d="M17.4883 15.9336C17.8443 15.9336 18.1328 15.6451 18.1328 15.2891V12.7109C18.1328 12.3549 17.8443 12.0664 17.4883 12.0664C17.1323 12.0664 16.8438 12.3549 16.8438 12.7109V15.2891C16.8438 15.6451 17.1323 15.9336 17.4883 15.9336Z" fill="white"/>
</svg>
