<svg width="22" height="22" viewBox="0 0 22 22" fill="none" xmlns="http://www.w3.org/2000/svg">
<path d="M9.15097 17.6852C9.42562 17.9468 9.86116 17.9365 10.1228 17.6615C10.3847 17.3865 10.3737 16.9513 10.099 16.6893L4.82522 11.6874H18.5625C18.942 11.6874 19.25 11.3794 19.25 10.9999C19.25 10.6204 18.942 10.3124 18.5625 10.3124H4.84722L10.099 5.31019C10.374 5.04825 10.3847 4.61307 10.1228 4.33807C9.98766 4.19644 9.8065 4.12494 9.625 4.12494C9.4545 4.12494 9.284 4.18785 9.15097 4.31469L3.15288 10.0278C2.893 10.2873 2.75 10.6325 2.75 10.9999C2.75 11.3674 2.893 11.7125 3.16491 11.9838L9.15097 17.6852Z" fill="white"/>
</svg>
