<svg width="186" height="25" viewBox="0 0 186 25" fill="none" xmlns="http://www.w3.org/2000/svg">
<g opacity="0.95">
<path d="M101.596 22.2662C101.206 22.2662 100.795 22.18 100.514 21.9645C100.341 21.8136 100.103 21.5118 100.103 21.0161V10.7344H102.288V19.9168C102.288 20.0461 102.266 20.2616 102.439 20.4125C102.504 20.4556 102.634 20.5419 102.98 20.5419H109.34V22.2662H101.596Z" fill="white"/>
<path d="M112.887 11.8988C113.298 10.9288 113.753 10.6055 114.791 10.6055C115.786 10.6055 116.284 10.9288 116.695 11.8988L121.064 22.2667H118.771L117.581 19.3568H112.001L110.833 22.2667H108.54L112.887 11.8988ZM112.563 17.8048H117.019L115.137 13.1058C115.072 12.9334 114.964 12.6316 114.813 12.6316C114.661 12.6316 114.553 12.955 114.488 13.1058L112.563 17.8048Z" fill="white"/>
<path d="M128.85 10.7344C129.478 10.7344 130.343 10.799 130.948 11.4241C131.597 12.0923 131.684 13.1485 131.684 13.9029C131.684 14.528 131.641 15.1747 131.143 15.7782C130.819 16.1662 130.473 16.3387 130.062 16.3818V16.4464C130.602 16.4895 131.057 16.7482 131.338 17.05C131.879 17.6535 131.879 18.4726 131.879 19.1192C131.879 19.8737 131.879 20.8005 131.208 21.5334C130.537 22.2662 129.802 22.2662 129.088 22.2662H123.551C122.967 22.2662 122.448 22.3309 121.972 21.8136C121.863 21.6843 121.582 21.2963 121.582 20.6496V12.3941C121.582 11.963 121.69 11.5104 121.95 11.2086C122.296 10.799 122.815 10.7344 123.183 10.7344H128.85ZM123.745 15.5627H127.985C128.418 15.5627 128.872 15.5627 129.175 15.1531C129.261 15.0454 129.413 14.7651 129.413 13.9892C129.413 13.6658 129.391 13.1054 129.023 12.7605C128.699 12.4588 128.31 12.4588 127.942 12.4588H124.373C124.2 12.4588 124.005 12.4372 123.875 12.5881C123.745 12.739 123.724 12.9761 123.724 13.1054L123.745 15.5627ZM123.745 19.6797C123.745 20.0676 123.789 20.2616 123.875 20.3479C124.048 20.5419 124.416 20.5203 124.589 20.5203H128.028C128.374 20.5203 128.98 20.4987 129.305 20.1108C129.542 19.809 129.607 19.3132 129.607 18.9468C129.607 18.6235 129.564 18.0846 129.369 17.7828C129.24 17.6104 128.915 17.3086 128.201 17.3086H123.767L123.745 19.6797Z" fill="white"/>
<path d="M133.155 20.5419H139.58C140.618 20.5419 140.661 19.6797 140.661 19.2917C140.661 18.839 140.553 18.3001 139.536 17.9984L134.972 16.5542C134.799 16.5111 134.064 16.2524 133.61 15.692C133.09 15.0669 133.004 14.1616 133.004 13.515C133.004 12.8252 133.09 11.9846 133.739 11.381C134.345 10.8206 135.08 10.7344 135.643 10.7344H142.305V12.4588H136.4C136.097 12.4588 135.751 12.4803 135.491 12.7174C135.21 12.9761 135.189 13.3856 135.189 13.6012C135.189 14.1185 135.34 14.6143 136.27 14.8945L140.51 16.2309C141.289 16.468 141.808 16.7266 142.154 17.05C142.846 17.7182 142.911 18.7312 142.911 19.2701C142.911 20.003 142.803 20.8005 142.327 21.4041C141.743 22.1369 141.029 22.2231 140.25 22.2231H133.155V20.5419Z" fill="white"/>
<path d="M147.28 11.8988C147.691 10.9288 148.146 10.6055 149.184 10.6055C150.179 10.6055 150.677 10.9288 151.087 11.8988L155.457 22.2667H153.164L151.974 19.3568H146.394L145.225 22.2667H142.933L147.28 11.8988ZM146.956 17.8048H151.412L149.53 13.1058C149.465 12.9334 149.357 12.6316 149.206 12.6316C149.054 12.6316 148.946 12.955 148.881 13.1058L146.956 17.8048Z" fill="white"/>
<path d="M157.447 22.2662C157.058 22.2662 156.647 22.18 156.366 21.9645C156.193 21.8136 155.955 21.5118 155.955 21.0161V10.7344H158.139V19.9168C158.139 20.0461 158.118 20.2616 158.291 20.4125C158.356 20.4556 158.485 20.5419 158.832 20.5419H165.191V22.2662H157.447Z" fill="white"/>
<path d="M167.613 22.2663C167.116 22.2663 166.662 22.2663 166.294 21.8999C165.905 21.5119 165.861 20.9946 165.861 20.5419V12.3726C165.861 11.92 166.013 11.4458 166.251 11.1655C166.64 10.756 167.202 10.7129 167.635 10.7129H175.054V12.4373H168.803C168.608 12.4373 168.371 12.4588 168.197 12.6097C168.024 12.7822 168.024 12.9977 168.024 13.1701V15.4981H174.903V17.2225H168.046V19.9168C168.046 20.0893 168.111 20.2833 168.219 20.3695C168.349 20.4988 168.608 20.5204 168.955 20.5204H175.141V22.2448H167.613V22.2663Z" fill="white"/>
<path d="M176.287 20.5419H182.69C183.728 20.5419 183.772 19.6797 183.772 19.2917C183.772 18.839 183.663 18.3002 182.647 17.9984L178.083 16.5542C177.91 16.5111 177.174 16.2524 176.72 15.692C176.201 15.0669 176.114 14.1616 176.114 13.515C176.114 12.8252 176.201 11.9846 176.85 11.381C177.455 10.8206 178.191 10.7344 178.753 10.7344H185.415V12.4588H179.489C179.186 12.4588 178.84 12.4803 178.58 12.7174C178.299 12.9761 178.277 13.3856 178.277 13.6012C178.277 14.1185 178.429 14.6143 179.359 14.8945L183.599 16.2309C184.377 16.468 184.896 16.7266 185.242 17.05C185.935 17.7182 186 18.7312 186 19.2701C186 20.003 185.891 20.8005 185.415 21.4041C184.831 22.1369 184.118 22.2231 183.339 22.2231H176.222V20.5419H176.287Z" fill="white"/>
<path d="M95.6042 10.0015L91.7971 0.862196C91.6673 0.560428 91.5592 0.344878 91.4294 0.237104C91.278 0.0862196 91.0616 0 90.8021 0C90.5425 0 90.3262 0.0862196 90.1748 0.237104C90.045 0.344878 89.9368 0.560428 89.8071 0.862196L86 10.023V20.5849C86 21.1454 86.1082 21.5333 86.3461 21.792C86.584 22.0507 86.9301 22.1584 87.3844 22.1584H94.2414C94.6957 22.1584 95.0417 22.0291 95.2797 21.792C95.5176 21.5333 95.6258 21.1454 95.6258 20.5849L95.6042 10.0015ZM94.674 10.0015V11.6396C94.5226 11.5534 94.3496 11.4888 94.1549 11.4672C93.8304 11.4241 93.5276 11.5103 93.2896 11.6828L91.5159 9.82904C91.5808 9.69971 91.6241 9.57038 91.6457 9.44105C91.7322 8.75129 91.2563 8.1262 90.5641 8.03998C89.8719 7.95376 89.2446 8.42797 89.1581 9.11772C89.1149 9.52727 89.2663 9.91526 89.5475 10.1955L88.7471 11.8552C88.7039 11.8552 88.6606 11.8336 88.6173 11.8336C88.4227 11.8121 88.2064 11.8336 88.0333 11.8983L87.0167 9.80748L90.4992 1.03464C90.5858 0.819086 90.6939 0.711312 90.8021 0.711312C90.9102 0.711312 90.9968 0.819086 91.1049 1.03464L94.674 10.0015Z" fill="white"/>
<path d="M94.6741 13.7514V20.649C94.6741 20.9077 94.6308 21.0801 94.5443 21.1663C94.4578 21.2526 94.2847 21.2957 94.0468 21.2957H87.5575C87.3195 21.2957 87.1465 21.2526 87.06 21.1663C86.9734 21.0801 86.9302 20.9077 86.9302 20.649V11.0786L87.4926 12.2426C87.3412 12.415 87.2546 12.6306 87.2114 12.8893C87.1249 13.579 87.6007 14.2041 88.2929 14.2903C88.9851 14.3765 89.6124 13.9023 89.6989 13.2126C89.7422 12.803 89.5908 12.415 89.3312 12.1564L90.1316 10.4967C90.1748 10.4967 90.2181 10.5182 90.2613 10.5182C90.5642 10.5613 90.867 10.4751 91.105 10.3242L92.9003 12.1779C92.8354 12.2857 92.8138 12.415 92.7922 12.5444C92.7056 13.2341 93.1815 13.8592 93.8737 13.9454C94.1549 13.967 94.4361 13.9023 94.6741 13.7514Z" fill="#EA524E"/>
</g>
<path opacity="0.95" d="M6.10983 21.084C5.13916 21.084 4.26183 20.8693 3.47783 20.44C2.70316 20.0107 2.09183 19.418 1.64383 18.662C1.20516 17.8967 0.985828 17.0427 0.985828 16.1C0.985828 15.1573 1.20516 14.308 1.64383 13.552C2.09183 12.7867 2.70783 12.1893 3.49183 11.76C4.27583 11.3307 5.15316 11.116 6.12383 11.116C6.85183 11.116 7.52383 11.2373 8.13983 11.48C8.75583 11.7227 9.2785 12.0773 9.70783 12.544L9.04983 13.202C8.2845 12.4273 7.3185 12.04 6.15183 12.04C5.37716 12.04 4.6725 12.2173 4.03783 12.572C3.40316 12.9267 2.90383 13.412 2.53983 14.028C2.18516 14.644 2.00783 15.3347 2.00783 16.1C2.00783 16.8653 2.18516 17.556 2.53983 18.172C2.90383 18.788 3.40316 19.2733 4.03783 19.628C4.6725 19.9827 5.37716 20.16 6.15183 20.16C7.32783 20.16 8.29383 19.768 9.04983 18.984L9.70783 19.642C9.2785 20.1087 8.75116 20.468 8.12583 20.72C7.50983 20.9627 6.83783 21.084 6.10983 21.084ZM18.4358 20.132V22.778H17.4978V21H10.9038V22.778H9.96584V20.132H10.3858C10.8805 20.104 11.2165 19.74 11.3938 19.04C11.5712 18.34 11.6925 17.36 11.7578 16.1L11.8558 13.636H17.2878V20.132H18.4358ZM12.6678 16.156C12.6212 17.2013 12.5325 18.0647 12.4018 18.746C12.2712 19.418 12.0378 19.88 11.7018 20.132H16.2938V14.518H12.7518L12.6678 16.156ZM26.813 17.626H20.653C20.709 18.3913 21.003 19.012 21.535 19.488C22.067 19.9547 22.739 20.188 23.551 20.188C24.0083 20.188 24.4283 20.1087 24.811 19.95C25.1937 19.782 25.525 19.5393 25.805 19.222L26.365 19.866C26.0383 20.258 25.6277 20.5567 25.133 20.762C24.6477 20.9673 24.111 21.07 23.523 21.07C22.767 21.07 22.095 20.9113 21.507 20.594C20.9283 20.2673 20.4757 19.8193 20.149 19.25C19.8223 18.6807 19.659 18.0367 19.659 17.318C19.659 16.5993 19.813 15.9553 20.121 15.386C20.4383 14.8167 20.8677 14.3733 21.409 14.056C21.9597 13.7387 22.5757 13.58 23.257 13.58C23.9383 13.58 24.5497 13.7387 25.091 14.056C25.6323 14.3733 26.057 14.8167 26.365 15.386C26.673 15.946 26.827 16.59 26.827 17.318L26.813 17.626ZM23.257 14.434C22.5477 14.434 21.9503 14.6627 21.465 15.12C20.989 15.568 20.7183 16.156 20.653 16.884H25.875C25.8097 16.156 25.5343 15.568 25.049 15.12C24.573 14.6627 23.9757 14.434 23.257 14.434ZM34.8969 13.636V21H33.9029V14.518H30.3749L30.2769 16.338C30.2022 17.8687 30.0249 19.0447 29.7449 19.866C29.4649 20.6873 28.9656 21.098 28.2469 21.098C28.0509 21.098 27.8129 21.0607 27.5329 20.986L27.6029 20.132C27.7709 20.1693 27.8876 20.188 27.9529 20.188C28.3356 20.188 28.6249 20.0107 28.8209 19.656C29.0169 19.3013 29.1476 18.8627 29.2129 18.34C29.2782 17.8173 29.3342 17.1267 29.3809 16.268L29.5069 13.636H34.8969ZM40.2566 13.58C41.2179 13.58 41.9553 13.8227 42.4686 14.308C42.9819 14.784 43.2386 15.4933 43.2386 16.436V21H42.2866V19.852C42.0626 20.2347 41.7313 20.5333 41.2926 20.748C40.8633 20.9627 40.3499 21.07 39.7526 21.07C38.9313 21.07 38.2779 20.874 37.7926 20.482C37.3073 20.09 37.0646 19.572 37.0646 18.928C37.0646 18.3027 37.2886 17.7987 37.7366 17.416C38.1939 17.0333 38.9173 16.842 39.9066 16.842H42.2446V16.394C42.2446 15.7593 42.0673 15.2787 41.7126 14.952C41.3579 14.616 40.8399 14.448 40.1586 14.448C39.6919 14.448 39.2439 14.5273 38.8146 14.686C38.3853 14.8353 38.0166 15.0453 37.7086 15.316L37.2606 14.574C37.6339 14.2567 38.0819 14.014 38.6046 13.846C39.1273 13.6687 39.6779 13.58 40.2566 13.58ZM39.9066 20.286C40.4666 20.286 40.9473 20.16 41.3486 19.908C41.7499 19.6467 42.0486 19.2733 42.2446 18.788V17.584H39.9346C38.6746 17.584 38.0446 18.0227 38.0446 18.9C38.0446 19.3293 38.2079 19.67 38.5346 19.922C38.8613 20.1647 39.3186 20.286 39.9066 20.286ZM45.8847 13.636H46.8787V16.898H51.5127V13.636H52.5067V21H51.5127V17.752H46.8787V21H45.8847V13.636ZM58.37 21.07C57.6606 21.07 57.0213 20.9113 56.452 20.594C55.8826 20.2673 55.4346 19.8193 55.108 19.25C54.7813 18.6807 54.618 18.0367 54.618 17.318C54.618 16.5993 54.7813 15.9553 55.108 15.386C55.4346 14.8167 55.8826 14.3733 56.452 14.056C57.0213 13.7387 57.6606 13.58 58.37 13.58C59.0793 13.58 59.7186 13.7387 60.288 14.056C60.8573 14.3733 61.3006 14.8167 61.618 15.386C61.9446 15.9553 62.108 16.5993 62.108 17.318C62.108 18.0367 61.9446 18.6807 61.618 19.25C61.3006 19.8193 60.8573 20.2673 60.288 20.594C59.7186 20.9113 59.0793 21.07 58.37 21.07ZM58.37 20.188C58.8926 20.188 59.3593 20.0713 59.77 19.838C60.19 19.5953 60.5166 19.2547 60.75 18.816C60.9833 18.3773 61.1 17.878 61.1 17.318C61.1 16.758 60.9833 16.2587 60.75 15.82C60.5166 15.3813 60.19 15.0453 59.77 14.812C59.3593 14.5693 58.8926 14.448 58.37 14.448C57.8473 14.448 57.376 14.5693 56.956 14.812C56.5453 15.0453 56.2186 15.3813 55.976 15.82C55.7426 16.2587 55.626 16.758 55.626 17.318C55.626 17.878 55.7426 18.3773 55.976 18.816C56.2186 19.2547 56.5453 19.5953 56.956 19.838C57.376 20.0713 57.8473 20.188 58.37 20.188ZM72.5864 17.192C73.5851 17.4253 74.0844 18.0273 74.0844 18.998C74.0844 19.642 73.8464 20.1367 73.3704 20.482C72.8944 20.8273 72.1851 21 71.2424 21H67.8964V13.636H71.1444C71.9844 13.636 72.6424 13.7993 73.1184 14.126C73.5944 14.4527 73.8324 14.9193 73.8324 15.526C73.8324 15.9273 73.7204 16.2727 73.4964 16.562C73.2818 16.842 72.9784 17.052 72.5864 17.192ZM68.8624 16.912H71.0744C71.6438 16.912 72.0778 16.8047 72.3764 16.59C72.6844 16.3753 72.8384 16.0627 72.8384 15.652C72.8384 15.2413 72.6844 14.9333 72.3764 14.728C72.0778 14.5227 71.6438 14.42 71.0744 14.42H68.8624V16.912ZM71.2004 20.216C71.8351 20.216 72.3111 20.1133 72.6284 19.908C72.9458 19.7027 73.1044 19.3807 73.1044 18.942C73.1044 18.5033 72.9598 18.1813 72.6704 17.976C72.3811 17.7613 71.9238 17.654 71.2984 17.654H68.8624V20.216H71.2004Z" fill="white"/>
</svg>
