<svg width="22" height="23" viewBox="0 0 22 23" fill="none" xmlns="http://www.w3.org/2000/svg">
<path d="M13.9256 3.19458C12.3938 3.19458 10.9031 3.62559 9.61436 4.441C8.36116 5.23393 7.35042 6.35397 6.69141 7.67996L7.94892 8.30495C9.08505 6.01891 11.3752 4.59884 13.9256 4.59884C17.6035 4.59884 20.5958 7.59107 20.5958 11.269C20.5958 14.947 17.6035 17.9393 13.9256 17.9393C11.3752 17.9393 9.08505 16.5192 7.94892 14.2332L6.69141 14.8581C7.35042 16.1842 8.36116 17.3042 9.61436 18.0971C10.9031 18.9125 12.3938 19.3435 13.9256 19.3435C18.3778 19.3435 22 15.7213 22 11.269C22 6.81676 18.3778 3.19458 13.9256 3.19458Z" fill="white"/>
<path d="M10.6206 13.5811L11.6135 14.574L14.9185 11.2691L11.6135 7.96411L10.6206 8.95701L12.2305 10.5669H0V11.9712H12.2305L10.6206 13.5811Z" fill="white"/>
</svg>
