<svg width="33" height="33" viewBox="0 0 33 33" fill="none" xmlns="http://www.w3.org/2000/svg">
<path d="M16.2648 15.8962C18.4486 15.8962 20.3394 15.113 21.8848 13.5676C23.4297 12.0225 24.2132 10.132 24.2132 7.94786C24.2132 5.76451 23.4299 3.87373 21.8845 2.32811C20.3392 0.783255 18.4484 0 16.2648 0C14.0807 0 12.1901 0.783255 10.645 2.32836C9.09991 3.87347 8.31641 5.76426 8.31641 7.94786C8.31641 10.132 9.09991 12.0227 10.645 13.5679C12.1906 15.1127 14.0814 15.8962 16.2648 15.8962ZM12.0126 3.69572C13.1982 2.51014 14.589 1.93384 16.2648 1.93384C17.9403 1.93384 19.3313 2.51014 20.5172 3.69572C21.7028 4.88156 22.2793 6.27259 22.2793 7.94786C22.2793 9.62364 21.7028 11.0144 20.5172 12.2002C19.3313 13.3861 17.9403 13.9624 16.2648 13.9624C14.5895 13.9624 13.1987 13.3858 12.0126 12.2002C10.8268 11.0147 10.2503 9.62364 10.2503 7.94786C10.2503 6.27259 10.8268 4.88156 12.0126 3.69572Z" fill="#222222"/>
<path d="M30.1724 25.3755C30.1278 24.7325 30.0377 24.031 29.905 23.2903C29.771 22.5441 29.5986 21.8386 29.3921 21.1939C29.1786 20.5274 28.8888 19.8693 28.5301 19.2386C28.1582 18.584 27.7211 18.014 27.2307 17.545C26.7178 17.0543 26.0899 16.6597 25.3638 16.372C24.6402 16.0857 23.8383 15.9407 22.9806 15.9407C22.6437 15.9407 22.3179 16.0789 21.6887 16.4885C21.3015 16.7411 20.8486 17.0331 20.343 17.3561C19.9107 17.6316 19.3251 17.8896 18.6018 18.1233C17.8961 18.3516 17.1795 18.4674 16.4721 18.4674C15.7651 18.4674 15.0485 18.3516 14.3423 18.1233C13.6198 17.8899 13.0339 17.6318 12.6023 17.3564C12.1016 17.0364 11.6484 16.7443 11.2554 16.4883C10.6267 16.0787 10.3009 15.9404 9.96405 15.9404C9.10602 15.9404 8.30438 16.0857 7.58105 16.3722C6.85545 16.6595 6.22728 17.054 5.71392 17.5452C5.22347 18.0145 4.7864 18.5843 4.41479 19.2386C4.05652 19.8693 3.76648 20.5272 3.55298 21.1941C3.34678 21.8389 3.17432 22.5441 3.04037 23.2903C2.90744 24.03 2.81756 24.7317 2.773 25.3762C2.72919 26.0064 2.70703 26.6623 2.70703 27.3249C2.70703 29.0476 3.25463 30.4421 4.33447 31.4706C5.40097 32.4855 6.81189 33.0001 8.52821 33.0001H24.4179C26.1337 33.0001 27.5446 32.4855 28.6114 31.4706C29.6915 30.4429 30.2391 29.0478 30.2391 27.3247C30.2388 26.6598 30.2164 26.0039 30.1724 25.3755ZM27.278 30.0695C26.5733 30.7402 25.6377 31.0662 24.4177 31.0662H8.52821C7.30788 31.0662 6.3723 30.7402 5.66785 30.0697C4.97674 29.4119 4.64088 28.5138 4.64088 27.3249C4.64088 26.7066 4.66127 26.0961 4.70206 25.5099C4.74184 24.9349 4.82316 24.3032 4.94376 23.632C5.06284 22.9691 5.21441 22.347 5.39468 21.7837C5.56764 21.2437 5.80355 20.7089 6.09611 20.1938C6.37532 19.7029 6.69658 19.2817 7.05107 18.9423C7.38265 18.6248 7.80059 18.365 8.29305 18.1701C8.7485 17.9898 9.26035 17.8911 9.81601 17.8763C9.88374 17.9123 10.0043 17.981 10.1997 18.1084C10.5973 18.3675 11.0555 18.6631 11.562 18.9866C12.133 19.3506 12.8687 19.6795 13.7477 19.9632C14.6462 20.2537 15.5627 20.4013 16.4723 20.4013C17.382 20.4013 18.2986 20.2537 19.1967 19.9635C20.0764 19.6792 20.8118 19.3506 21.3836 18.9861C21.902 18.6548 22.3474 18.3677 22.7449 18.1084C22.9403 17.9813 23.0609 17.9123 23.1286 17.8763C23.6845 17.8911 24.1964 17.9898 24.6521 18.1701C25.1443 18.365 25.5622 18.625 25.8938 18.9423C26.2483 19.2814 26.5695 19.7026 26.8488 20.1941C27.1416 20.7089 27.3777 21.244 27.5504 21.7835C27.731 22.3475 27.8828 22.9693 28.0016 23.6317C28.122 24.3042 28.2035 24.9362 28.2433 25.5102V25.5107C28.2843 26.0945 28.305 26.7048 28.3052 27.3249C28.305 28.5141 27.9691 29.4119 27.278 30.0695Z" fill="#222222"/>
</svg>
