<svg width="27" height="27" fill="none" xmlns="http://www.w3.org/2000/svg"><path d="M.791 3.217h4.852c.436 0 .79.355.79.79 0 .069-.1-.857 1.508 13.612a2.376 2.376 0 00-1.507 2.21A2.375 2.375 0 008.807 22.2h.927a2.376 2.376 0 002.237 3.165 2.376 2.376 0 002.237-3.165h5.018a2.376 2.376 0 002.237 3.165 2.376 2.376 0 002.373-2.374 2.376 2.376 0 00-2.373-2.373H8.807a.792.792 0 010-1.582h14.48c1.165 0 2.15-.834 2.34-1.983l1.362-8.17a.791.791 0 00-.78-.921h-2.373V4.008a.79.79 0 00-.791-.791h-6.328a.79.79 0 00-.791.79V4.8H11.97a.79.79 0 00-.791.79v2.374H8.46L8.015 3.96a2.376 2.376 0 00-2.372-2.325H.79a.791.791 0 100 1.582zm11.97 19.775a.792.792 0 01-1.581 0 .792.792 0 011.582 0zm8.702.791a.792.792 0 010-1.582.792.792 0 010 1.582zM17.508 4.8h4.746v3.164h-4.746V4.799zm-4.746 1.58h3.164v1.582h-3.164V6.38zm12.513 3.164l-1.208 7.249a.788.788 0 01-.78.661H9.515l-.88-7.91h16.64z" fill="#fff"/><path d="M11.97 15.873a.79.79 0 00.792-.791v-3.164a.79.79 0 10-1.582 0v3.164a.79.79 0 00.79.791zm4.747 0a.79.79 0 00.79-.791v-3.164a.79.79 0 10-1.581 0v3.164a.79.79 0 00.79.791zm4.746 0a.79.79 0 00.79-.791v-3.164a.79.79 0 10-1.581 0v3.164a.79.79 0 00.79.791z" fill="#fff"/></svg>