<svg width="28" height="25" fill="none" xmlns="http://www.w3.org/2000/svg"><path d="M.645 5.621h3.953c.355 0 .644.29.644.645 0 .055-.081-.7 1.228 11.09a1.936 1.936 0 00-1.228 1.8c0 1.066.868 1.933 1.934 1.933h.755a1.936 1.936 0 001.823 2.579 1.936 1.936 0 001.823-2.579h4.089a1.936 1.936 0 001.823 2.579 1.936 1.936 0 001.933-1.934 1.936 1.936 0 00-1.934-1.933H7.176a.645.645 0 010-1.29h11.798c.95 0 1.752-.679 1.908-1.615l1.11-6.657a.644.644 0 00-.637-.75h-1.933V6.265a.645.645 0 00-.645-.645h-5.156a.644.644 0 00-.644.645v.644H9.754a.644.644 0 00-.645.645v1.933H6.893l-.362-3.262a1.936 1.936 0 00-1.933-1.894H.645a.644.644 0 100 1.29zm9.753 16.113a.645.645 0 11-1.29-.001.645.645 0 011.29.001zm7.09.645a.645.645 0 11.002-1.29.645.645 0 01-.002 1.29zM14.266 6.91h3.867v2.578h-3.867V6.91zM10.398 8.2h2.579v1.288h-2.579V8.2zm10.197 2.577l-.985 5.907a.643.643 0 01-.636.539H7.753l-.717-6.446h13.559z" fill="#fff"/><path d="M9.754 15.934a.644.644 0 00.644-.645v-2.578a.644.644 0 10-1.289 0v2.578c0 .356.289.645.645.645zm3.867 0a.644.644 0 00.645-.645v-2.578a.644.644 0 10-1.29 0v2.578c0 .356.29.645.645.645zm3.867 0a.644.644 0 00.645-.645v-2.578a.644.644 0 10-1.29 0v2.578c0 .356.29.645.645.645z" fill="#fff"/></svg>