<svg width="56" height="57" fill="none" xmlns="http://www.w3.org/2000/svg"><g clip-path="url(#clip0)" fill="#222"><path d="M28 .269a5.6 5.6 0 100 11.2 5.6 5.6 0 000-11.2zm0 9.333a3.733 3.733 0 110-7.466 3.733 3.733 0 010 7.466zm3.733 2.8h-.22l-.197.098a7.44 7.44 0 01-6.633 0l-.197-.098h-.22A4.672 4.672 0 0019.6 17.07v5.6a2.8 2.8 0 002.8 2.8h11.2a2.8 2.8 0 002.8-2.8v-5.6a4.672 4.672 0 00-4.667-4.667zm2.8 10.267a.933.933 0 01-.933.933H22.4a.933.933 0 01-.934-.933v-5.6a2.8 2.8 0 012.601-2.792 9.34 9.34 0 007.865 0 2.8 2.8 0 012.6 2.792v5.6zM47.6 31.07a5.6 5.6 0 100 11.2 5.6 5.6 0 000-11.2zm0 9.332a3.733 3.733 0 110-7.466 3.733 3.733 0 010 7.466zm3.734 2.8h-.22l-.198.094a7.44 7.44 0 01-6.632 0l-.197-.094h-.22A4.672 4.672 0 0039.2 47.87v5.6a2.8 2.8 0 002.8 2.8h11.2a2.8 2.8 0 002.8-2.8v-5.6a4.672 4.672 0 00-4.666-4.667zm2.8 10.267a.933.933 0 01-.934.933H42a.933.933 0 01-.933-.933v-5.6a2.8 2.8 0 012.601-2.792 9.34 9.34 0 007.864 0 2.8 2.8 0 012.602 2.792v5.6zM8.4 31.07a5.6 5.6 0 100 11.199 5.6 5.6 0 000-11.2zm0 9.332a3.733 3.733 0 110-7.466 3.733 3.733 0 010 7.466zm3.733 2.8h-.22l-.197.094a7.44 7.44 0 01-6.632 0l-.197-.094h-.22A4.672 4.672 0 000 47.87v5.6a2.8 2.8 0 002.8 2.8H14a2.8 2.8 0 002.8-2.8v-5.6a4.672 4.672 0 00-4.667-4.667zm2.8 10.267a.933.933 0 01-.933.933H2.8a.933.933 0 01-.933-.933v-5.6a2.8 2.8 0 012.6-2.792 9.34 9.34 0 007.865 0 2.8 2.8 0 012.601 2.792v5.6zm22.327-5.801l-.002-.004a.933.933 0 00-1.224-.492 20.703 20.703 0 01-13.312.916l.873-.256a.934.934 0 10-.524-1.792l-3.734 1.094c-.014 0-.024.016-.037.02a.925.925 0 00-.24.134.822.822 0 00-.094.06.904.904 0 00-.3.702c.023.126.054.251.094.373.005.013 0 .028.01.041l1.867 3.572a.934.934 0 101.655-.864l-.76-1.452a22.466 22.466 0 0015.232-.83.933.933 0 00.496-1.222zM52.926 24.81a.934.934 0 00-1.32 0l-1.32 1.32a22.366 22.366 0 00-13.52-18.48.933.933 0 10-.732 1.717 20.503 20.503 0 0112.345 16.495l-1.053-1.053a.933.933 0 00-1.32 1.32l2.8 2.8a.933.933 0 001.322 0l2.8-2.8a.933.933 0 00-.002-1.32zM20.506 8.35a.872.872 0 00-.024-.16c0-.01-.01-.015-.014-.024-.004-.01 0-.016 0-.023a.892.892 0 00-.088-.13.94.94 0 00-.107-.153.876.876 0 00-.181-.124.82.82 0 00-.105-.076l-3.733-1.705a.933.933 0 00-.775 1.697l1.933.884A22.366 22.366 0 005.6 28.269a.933.933 0 001.866 0 20.502 20.502 0 0110.102-17.681l-.675 1.41a.933.933 0 001.68.809l1.867-3.895c0-.01 0-.02.007-.03a.9.9 0 00.05-.197.955.955 0 00.036-.154.93.93 0 00-.027-.18z"/></g><defs><clipPath id="clip0"><path fill="#fff" transform="translate(0 .269)" d="M0 0h56v56H0z"/></clipPath></defs></svg>