<svg width="100" height="25" fill="none" xmlns="http://www.w3.org/2000/svg"><path d="M11.44 11.7c.853.253 1.507.667 1.96 1.24.453.573.68 1.28.68 2.12 0 1.24-.473 2.207-1.42 2.9-.933.693-2.273 1.04-4.02 1.04h-6.9V5h6.52c1.627 0 2.893.313 3.8.94s1.36 1.52 1.36 2.68c0 .693-.173 1.307-.52 1.84-.347.52-.833.933-1.46 1.24zm-6.48-.9h3.02c.707 0 1.24-.14 1.6-.42.36-.293.54-.72.54-1.28 0-.547-.187-.967-.56-1.26-.36-.293-.887-.44-1.58-.44H4.96v3.4zm3.56 5.8c1.52 0 2.28-.6 2.28-1.8 0-1.16-.76-1.74-2.28-1.74H4.96v3.54h3.56zm13.542-4.92c1.4.013 2.46.327 3.18.94.72.613 1.08 1.493 1.08 2.64 0 1.2-.406 2.127-1.22 2.78-.813.653-1.966.98-3.46.98l-5.24-.02V8.24h3.1v3.44h2.56zm5.42-3.44h3.1V19h-3.1V8.24zm-6.12 8.56c.6.013 1.06-.113 1.38-.38.32-.267.48-.667.48-1.2 0-.52-.16-.9-.48-1.14-.306-.24-.766-.367-1.38-.38l-1.86-.02v3.12h1.86zM40.35 19l-2.36-3.3-2.44 3.3h-3.4l4.14-5.42-4-5.34h3.5l2.28 3.14 2.34-3.14h3.32l-4 5.26 4.16 5.5h-3.54zm9.784.16c-1.134 0-2.154-.233-3.06-.7a5.365 5.365 0 01-2.1-1.98c-.507-.84-.76-1.793-.76-2.86s.253-2.02.76-2.86a5.224 5.224 0 012.1-1.96c.906-.48 1.926-.72 3.06-.72 1.133 0 2.146.24 3.04.72a5.225 5.225 0 012.1 1.96c.506.84.76 1.793.76 2.86s-.254 2.02-.76 2.86a5.366 5.366 0 01-2.1 1.98c-.894.467-1.907.7-3.04.7zm0-2.56c.8 0 1.453-.267 1.96-.8.52-.547.78-1.273.78-2.18 0-.907-.26-1.627-.78-2.16-.507-.547-1.16-.82-1.96-.82s-1.46.273-1.98.82c-.52.533-.78 1.253-.78 2.16 0 .907.26 1.633.78 2.18.52.533 1.18.8 1.98.8zm19.95-.16v4.88h-2.9V19h-7.56v2.32h-2.9v-4.88h.44c.666-.013 1.126-.407 1.38-1.18.253-.773.413-1.873.48-3.3l.14-3.72h9.38v8.2h1.54zm-8.24-4.26c-.04 1.093-.127 1.987-.26 2.68-.12.693-.354 1.22-.7 1.58h4.54V10.8h-3.52l-.06 1.38zm30.082-8.254a8.05 8.05 0 00-4.312 1.246 8.098 8.098 0 00-2.923 3.239l1.258.625a6.637 6.637 0 015.977-3.706 6.678 6.678 0 016.67 6.67 6.678 6.678 0 01-6.67 6.67c-2.55 0-4.84-1.42-5.977-3.706l-1.258.625a8.099 8.099 0 002.923 3.24 8.05 8.05 0 004.312 1.245c4.452 0 8.074-3.622 8.074-8.074s-3.622-8.074-8.074-8.074z" fill="#fff"/><path d="M88.62 14.312l.993.993L92.919 12l-3.305-3.305-.992.993 1.61 1.61H78v1.404h12.23l-1.61 1.61z" fill="#fff"/></svg>