<svg width="186" height="25" fill="none" xmlns="http://www.w3.org/2000/svg"><g opacity=".95"><path d="M101.596 22.266c-.39 0-.801-.086-1.082-.301a1.224 1.224 0 01-.411-.949V10.734h2.185v9.183c0 .13-.022.345.151.495.065.044.195.13.541.13h6.36v1.724h-7.744z" fill="#fff"/><path d="M112.887 11.899c.411-.97.866-1.293 1.904-1.293.995 0 1.493.323 1.904 1.293l4.369 10.368h-2.293l-1.19-2.91h-5.58l-1.168 2.91h-2.293l4.347-10.368zm-.324 5.906h4.456l-1.882-4.7c-.065-.172-.173-.473-.324-.473-.152 0-.26.323-.325.474l-1.925 4.699zm16.287-7.071c.628 0 1.493.065 2.098.69.649.668.736 1.725.736 2.479 0 .625-.043 1.272-.541 1.875-.324.388-.67.56-1.081.604v.064c.54.043.995.302 1.276.604.541.604.541 1.423.541 2.07 0 .754 0 1.68-.671 2.413-.671.733-1.406.733-2.12.733h-5.537c-.584 0-1.103.065-1.579-.452-.109-.13-.39-.518-.39-1.164v-8.256c0-.431.108-.884.368-1.185.346-.41.865-.475 1.233-.475h5.667zm-5.105 4.829h4.24c.433 0 .887 0 1.19-.41.086-.108.238-.388.238-1.164 0-.323-.022-.884-.39-1.229-.324-.301-.713-.301-1.081-.301h-3.569c-.173 0-.368-.022-.498.13-.13.15-.151.387-.151.516l.021 2.458zm0 4.117c0 .388.044.582.13.668.173.194.541.172.714.172h3.439c.346 0 .952-.021 1.277-.41.237-.301.302-.797.302-1.163 0-.323-.043-.862-.238-1.164-.129-.173-.454-.474-1.168-.474h-4.434l-.022 2.37zm9.41.862h6.425c1.038 0 1.081-.862 1.081-1.25 0-.453-.108-.992-1.125-1.294l-4.564-1.444c-.173-.043-.908-.302-1.362-.862-.52-.625-.606-1.53-.606-2.177 0-.69.086-1.53.735-2.134.606-.56 1.341-.647 1.904-.647h6.662v1.725H136.4c-.303 0-.649.021-.909.258-.281.26-.302.669-.302.884 0 .517.151 1.013 1.081 1.293l4.24 1.337c.779.237 1.298.496 1.644.819.692.668.757 1.681.757 2.22 0 .733-.108 1.53-.584 2.134-.584.733-1.298.82-2.077.82h-7.095v-1.682zm14.125-8.643c.411-.97.866-1.293 1.904-1.293.995 0 1.493.323 1.903 1.293l4.37 10.368h-2.293l-1.19-2.91h-5.58l-1.169 2.91h-2.292l4.347-10.368zm-.324 5.906h4.456l-1.882-4.7c-.065-.172-.173-.473-.324-.473-.152 0-.26.323-.325.474l-1.925 4.699zm10.491 4.461c-.389 0-.8-.086-1.081-.301a1.224 1.224 0 01-.411-.949V10.734h2.184v9.183c0 .13-.021.345.152.495.065.044.194.13.541.13h6.359v1.724h-7.744zm10.166 0c-.497 0-.951 0-1.319-.366-.389-.388-.433-.905-.433-1.358v-8.17c0-.452.152-.926.39-1.207.389-.409.951-.452 1.384-.452h7.419v1.724h-6.251c-.195 0-.432.022-.606.173-.173.172-.173.388-.173.56v2.328h6.879v1.725h-6.857v2.694c0 .172.065.366.173.452.13.13.389.151.736.151h6.186v1.725h-7.528v.021zm8.674-1.724h6.403c1.038 0 1.082-.862 1.082-1.25 0-.453-.109-.992-1.125-1.294l-4.564-1.444c-.173-.043-.909-.302-1.363-.862-.519-.625-.606-1.53-.606-2.177 0-.69.087-1.53.736-2.134.605-.56 1.341-.647 1.903-.647h6.662v1.725h-5.926c-.303 0-.649.021-.909.258-.281.26-.303.669-.303.884 0 .517.152 1.013 1.082 1.293l4.24 1.337c.778.237 1.297.496 1.643.819.693.668.758 1.681.758 2.22 0 .733-.109 1.53-.585 2.134-.584.733-1.297.82-2.076.82h-7.117v-1.682h.065zm-80.683-10.54L91.797.861c-.13-.302-.238-.517-.368-.625A.867.867 0 0090.802 0a.867.867 0 00-.627.237c-.13.108-.238.323-.368.625L86 10.023v10.562c0 .56.108.948.346 1.207.238.259.584.366 1.038.366h6.857c.455 0 .8-.129 1.039-.366.238-.259.346-.647.346-1.207L95.604 10zm-.93 0v1.638a1.344 1.344 0 00-.52-.173 1.194 1.194 0 00-.864.216l-1.774-1.854c.065-.13.108-.259.13-.388a1.245 1.245 0 00-1.082-1.401 1.247 1.247 0 00-1.406 1.078c-.043.41.108.797.39 1.077l-.8 1.66c-.044 0-.087-.021-.13-.021a1.33 1.33 0 00-.585.064l-1.016-2.09 3.482-8.773c.087-.216.195-.324.303-.324.108 0 .195.108.303.324L94.674 10z" fill="#fff"/><path d="M94.674 13.751v6.898c0 .259-.043.431-.13.517-.086.087-.26.13-.497.13h-6.49c-.237 0-.41-.043-.497-.13-.087-.086-.13-.258-.13-.517v-9.57l.563 1.164c-.152.172-.238.388-.282.646-.086.69.39 1.315 1.082 1.401a1.247 1.247 0 001.406-1.077 1.304 1.304 0 00-.368-1.057l.8-1.66c.044 0 .087.022.13.022.303.043.606-.043.844-.194l1.795 1.854a1.03 1.03 0 00-.108.366c-.086.69.39 1.315 1.082 1.401.28.022.562-.043.8-.194z" fill="#EA524E"/></g><path opacity=".95" d="M6.11 21.084c-.97 0-1.848-.215-2.632-.644a4.795 4.795 0 01-1.834-1.778c-.439-.765-.658-1.62-.658-2.562 0-.943.22-1.792.658-2.548a4.738 4.738 0 011.848-1.792c.784-.43 1.661-.644 2.632-.644.728 0 1.4.121 2.016.364a4.179 4.179 0 011.568 1.064l-.658.658c-.766-.775-1.732-1.162-2.898-1.162-.775 0-1.48.177-2.114.532a3.939 3.939 0 00-1.498 1.456c-.355.616-.532 1.307-.532 2.072 0 .765.177 1.456.532 2.072a3.939 3.939 0 001.498 1.456c.635.355 1.34.532 2.114.532 1.176 0 2.142-.392 2.898-1.176l.658.658c-.43.467-.957.826-1.582 1.078a5.452 5.452 0 01-2.016.364zm12.326-.952v2.646h-.938V21h-6.594v1.778h-.938v-2.646h.42c.495-.028.83-.392 1.008-1.092.177-.7.299-1.68.364-2.94l.098-2.464h5.432v6.496h1.148zm-5.768-3.976c-.047 1.045-.135 1.909-.266 2.59-.13.672-.364 1.134-.7 1.386h4.592v-5.614h-3.542l-.084 1.638zm14.145 1.47h-6.16c.056.765.35 1.386.882 1.862.532.467 1.204.7 2.016.7.457 0 .877-.08 1.26-.238.383-.168.714-.41.994-.728l.56.644a3.15 3.15 0 01-1.232.896 4.092 4.092 0 01-1.61.308c-.756 0-1.428-.159-2.016-.476a3.545 3.545 0 01-1.358-1.344c-.327-.57-.49-1.213-.49-1.932 0-.719.154-1.363.462-1.932a3.461 3.461 0 011.288-1.33 3.634 3.634 0 011.848-.476c.681 0 1.293.159 1.834.476.541.317.966.76 1.274 1.33.308.56.462 1.204.462 1.932l-.014.308zm-3.556-3.192c-.71 0-1.307.229-1.792.686-.476.448-.747 1.036-.812 1.764h5.222c-.065-.728-.34-1.316-.826-1.764-.476-.457-1.073-.686-1.792-.686zm11.64-.798V21h-.994v-6.482h-3.528l-.098 1.82c-.075 1.53-.252 2.707-.532 3.528-.28.821-.78 1.232-1.498 1.232-.196 0-.434-.037-.714-.112l.07-.854c.168.037.285.056.35.056.383 0 .672-.177.868-.532.196-.355.327-.793.392-1.316s.121-1.213.168-2.072l.126-2.632h5.39zm5.36-.056c.96 0 1.698.243 2.212.728.513.476.77 1.185.77 2.128V21h-.952v-1.148a2.272 2.272 0 01-.994.896c-.43.215-.943.322-1.54.322-.822 0-1.475-.196-1.96-.588-.486-.392-.728-.91-.728-1.554 0-.625.224-1.13.672-1.512.457-.383 1.18-.574 2.17-.574h2.338v-.448c0-.635-.178-1.115-.532-1.442-.355-.336-.873-.504-1.554-.504-.467 0-.915.08-1.344.238-.43.15-.798.36-1.106.63l-.448-.742c.373-.317.82-.56 1.344-.728a5.107 5.107 0 011.652-.266zm-.35 6.706c.56 0 1.04-.126 1.442-.378.4-.261.7-.635.896-1.12v-1.204h-2.31c-1.26 0-1.89.439-1.89 1.316 0 .43.163.77.49 1.022.326.243.784.364 1.372.364zm5.978-6.65h.994v3.262h4.634v-3.262h.994V21h-.994v-3.248h-4.634V21h-.994v-7.364zM58.37 21.07c-.71 0-1.349-.159-1.918-.476a3.573 3.573 0 01-1.344-1.344c-.327-.57-.49-1.213-.49-1.932 0-.719.163-1.363.49-1.932a3.472 3.472 0 011.344-1.33 3.878 3.878 0 011.918-.476c.71 0 1.349.159 1.918.476.57.317 1.013.76 1.33 1.33.327.57.49 1.213.49 1.932 0 .719-.163 1.363-.49 1.932a3.474 3.474 0 01-1.33 1.344 3.878 3.878 0 01-1.918.476zm0-.882c.523 0 .99-.117 1.4-.35a2.52 2.52 0 00.98-1.022c.233-.439.35-.938.35-1.498s-.117-1.06-.35-1.498a2.43 2.43 0 00-.98-1.008 2.7 2.7 0 00-1.4-.364 2.77 2.77 0 00-1.414.364c-.41.233-.737.57-.98 1.008-.233.439-.35.938-.35 1.498s.117 1.06.35 1.498c.243.439.57.78.98 1.022.42.233.891.35 1.414.35zm14.216-2.996c1 .233 1.498.835 1.498 1.806 0 .644-.238 1.139-.714 1.484S72.185 21 71.242 21h-3.346v-7.364h3.248c.84 0 1.498.163 1.974.49.476.327.714.793.714 1.4 0 .401-.112.747-.336 1.036-.214.28-.518.49-.91.63zm-3.724-.28h2.212c.57 0 1.004-.107 1.302-.322.308-.215.462-.527.462-.938 0-.41-.154-.719-.462-.924-.298-.205-.732-.308-1.302-.308h-2.212v2.492zm2.338 3.304c.635 0 1.111-.103 1.428-.308.318-.205.476-.527.476-.966 0-.439-.144-.76-.434-.966-.289-.215-.746-.322-1.372-.322h-2.436v2.562H71.2z" fill="#fff"/></svg>