<svg width="22" height="22" fill="none" xmlns="http://www.w3.org/2000/svg"><path d="M10.843 10.598c1.456 0 2.716-.523 3.747-1.553 1.03-1.03 1.552-2.29 1.552-3.746s-.522-2.717-1.552-3.747C13.56.522 12.299 0 10.843 0S8.127.522 7.097 1.552c-1.03 1.03-1.553 2.29-1.553 3.747 0 1.456.523 2.716 1.553 3.746 1.03 1.03 2.29 1.553 3.746 1.553zM8.008 2.463c.79-.79 1.718-1.175 2.835-1.175s2.044.384 2.835 1.175c.79.79 1.175 1.718 1.175 2.835s-.385 2.044-1.175 2.834c-.79.791-1.718 1.175-2.835 1.175S8.8 8.924 8.008 8.133c-.79-.79-1.175-1.717-1.175-2.834s.385-2.045 1.175-2.835zm12.107 14.454c-.03-.429-.09-.896-.178-1.39-.09-.498-.205-.968-.342-1.398a6.915 6.915 0 00-.575-1.303 4.915 4.915 0 00-.866-1.13 3.821 3.821 0 00-1.245-.781 4.302 4.302 0 00-1.589-.288c-.224 0-.441.092-.86.365-.259.169-.561.363-.898.579-.288.183-.679.355-1.16.511-.471.152-.949.23-1.42.23-.472 0-.95-.078-1.42-.23-.482-.155-.873-.328-1.16-.511a102.02 102.02 0 01-.898-.579c-.42-.273-.637-.365-.861-.365-.572 0-1.107.097-1.589.288a3.816 3.816 0 00-1.245.782 4.916 4.916 0 00-.866 1.129 6.92 6.92 0 00-.574 1.303c-.138.43-.253.9-.342 1.398a12.7 12.7 0 00-.178 1.39c-.03.42-.044.858-.044 1.3 0 1.148.365 2.078 1.085 2.763.71.677 1.65 1.02 2.795 1.02H16.28c1.143 0 2.084-.343 2.795-1.02.72-.685 1.085-1.615 1.085-2.764 0-.443-.015-.88-.044-1.299zm-1.93 3.13c-.47.447-1.093.664-1.907.664H5.685c-.813 0-1.437-.217-1.906-.664-.461-.44-.685-1.038-.685-1.83 0-.413.014-.82.04-1.21a11.672 11.672 0 01.462-2.484 5.67 5.67 0 01.468-1.06c.186-.328.4-.609.637-.835.22-.212.5-.385.828-.515.303-.12.645-.186 1.015-.195.045.024.126.07.256.154.265.173.57.37.908.586.38.242.871.462 1.457.65a5.9 5.9 0 001.817.293 5.92 5.92 0 001.816-.292c.586-.19 1.076-.409 1.458-.652.345-.22.642-.412.907-.585.13-.084.21-.13.256-.154.37.01.712.075 1.016.195.328.13.607.304.828.515.236.226.45.507.636.835.195.343.353.7.468 1.06.12.375.221.79.3 1.232.081.448.135.87.162 1.252.027.39.041.796.041 1.21 0 .792-.224 1.39-.685 1.83z" fill="#fff"/></svg>