<svg width="22" height="23" fill="none" xmlns="http://www.w3.org/2000/svg"><path d="M13.926 3.195A8.05 8.05 0 009.614 4.44a8.098 8.098 0 00-2.923 3.24l1.258.625a6.637 6.637 0 015.977-3.706 6.678 6.678 0 016.67 6.67 6.678 6.678 0 01-6.67 6.67c-2.55 0-4.84-1.42-5.977-3.706l-1.258.625a8.097 8.097 0 002.923 3.24 8.05 8.05 0 004.312 1.245c4.452 0 8.074-3.622 8.074-8.074s-3.622-8.074-8.074-8.074z" fill="#fff"/><path d="M10.62 13.581l.994.993 3.304-3.305-3.304-3.305-.993.993 1.61 1.61H0v1.404h12.23l-1.61 1.61z" fill="#fff"/></svg>