<svg width="67" height="67" fill="none" xmlns="http://www.w3.org/2000/svg"><ellipse cx="33.385" cy="33.5" rx="33.385" ry="33.5" fill="#DF0303"/><path d="M18.879 21.574h5.39a.88.88 0 01.88.88c0 .075-.112-.954 1.674 15.123a2.64 2.64 0 00-1.675 2.454 2.64 2.64 0 002.637 2.636h1.03a2.64 2.64 0 002.486 3.516 2.64 2.64 0 002.485-3.516h5.576a2.64 2.64 0 002.485 3.516 2.64 2.64 0 002.637-2.636 2.64 2.64 0 00-2.636-2.637H27.785a.88.88 0 010-1.758h16.09a2.628 2.628 0 002.6-2.203l1.513-9.078a.879.879 0 00-.867-1.023h-2.637v-4.395a.879.879 0 00-.879-.879h-7.03a.879.879 0 00-.88.88v.878h-4.394a.879.879 0 00-.88.879v2.637H27.4l-.494-4.448a2.64 2.64 0 00-2.636-2.584h-5.391a.879.879 0 100 1.758zm13.3 21.973a.88.88 0 01-1.757 0 .88.88 0 01.879-.88.88.88 0 01.879.88zm9.669.879a.88.88 0 010-1.758.88.88 0 010 1.758zm-4.395-21.094h5.273v3.516h-5.273v-3.516zM32.18 25.09h3.515v1.758H32.18V25.09zm13.904 3.515L44.74 36.66a.876.876 0 01-.867.735H28.572l-.977-8.79h18.489z" fill="#fff"/><path d="M31.3 35.637a.879.879 0 00.88-.88v-3.515a.879.879 0 10-1.758 0v3.516c0 .485.393.879.879.879zm5.274 0a.879.879 0 00.88-.88v-3.515a.879.879 0 10-1.759 0v3.516a.88.88 0 00.88.879zm5.274 0a.879.879 0 00.879-.88v-3.515a.879.879 0 10-1.758 0v3.516c0 .485.393.879.879.879z" fill="#fff"/></svg>