<svg width="33" height="34" fill="none" xmlns="http://www.w3.org/2000/svg"><g clip-path="url(#clip0)" fill="#DF0303"><path d="M16.265 16.165c2.184 0 4.074-.783 5.62-2.328 1.545-1.546 2.328-3.436 2.328-5.62 0-2.183-.783-4.074-2.329-5.62C20.34 1.052 18.448.27 16.264.27c-2.183 0-4.074.783-5.619 2.328S8.316 6.033 8.316 8.217s.784 4.075 2.329 5.62c1.546 1.545 3.436 2.328 5.62 2.328zm-4.252-12.2c1.185-1.186 2.576-1.762 4.252-1.762 1.675 0 3.066.576 4.252 1.762s1.762 2.577 1.762 4.252c0 1.676-.576 3.066-1.762 4.252s-2.577 1.762-4.252 1.762c-1.676 0-3.066-.576-4.252-1.762-1.186-1.185-1.763-2.576-1.763-4.252 0-1.675.577-3.066 1.763-4.252zm18.159 21.68a19.637 19.637 0 00-.267-2.086 16.429 16.429 0 00-.513-2.096 10.359 10.359 0 00-.862-1.955 7.372 7.372 0 00-1.3-1.694 5.731 5.731 0 00-1.866-1.173 6.451 6.451 0 00-2.383-.431c-.337 0-.663.138-1.292.548-.387.252-.84.544-1.346.867-.432.276-1.018.534-1.741.767a6.914 6.914 0 01-2.13.345 6.918 6.918 0 01-2.13-.345c-.722-.233-1.308-.491-1.74-.767a205 205 0 01-1.347-.868c-.628-.41-.954-.548-1.291-.548-.858 0-1.66.146-2.383.432a5.722 5.722 0 00-1.867 1.173 7.37 7.37 0 00-1.3 1.694c-.357.63-.648 1.288-.861 1.955-.206.645-.379 1.35-.513 2.096-.133.74-.222 1.442-.267 2.086-.044.63-.066 1.286-.066 1.949 0 1.723.548 3.117 1.627 4.146 1.067 1.015 2.478 1.53 4.194 1.53h15.89c1.716 0 3.127-.516 4.193-1.53 1.08-1.028 1.628-2.423 1.628-4.146 0-.665-.023-1.321-.067-1.95zm-2.894 4.694c-.705.67-1.64.996-2.86.996H8.528c-1.22 0-2.156-.326-2.86-.996-.691-.658-1.027-1.556-1.027-2.745 0-.618.02-1.229.061-1.815.04-.575.121-1.207.242-1.878.119-.663.27-1.285.45-1.848.174-.54.41-1.075.702-1.59.28-.491.6-.912.955-1.252a3.82 3.82 0 011.242-.772c.456-.18.967-.279 1.523-.294.068.036.188.105.384.233.397.259.856.554 1.362.878.571.364 1.307.692 2.186.976.898.29 1.815.438 2.724.438.91 0 1.827-.147 2.725-.438.88-.284 1.615-.612 2.187-.977.518-.331.963-.618 1.36-.877.196-.128.317-.197.385-.233a4.456 4.456 0 011.523.294c.492.195.91.455 1.242.772.354.34.676.76.955 1.252a8.42 8.42 0 01.701 1.59c.181.563.333 1.185.452 1.848.12.672.201 1.304.241 1.878.041.585.062 1.195.062 1.815 0 1.19-.336 2.087-1.027 2.744z"/></g><defs><clipPath id="clip0"><path fill="#fff" transform="translate(0 .269)" d="M0 0h33v33H0z"/></clipPath></defs></svg>