<svg width="18" height="19" viewBox="0 0 18 19" fill="none" xmlns="http://www.w3.org/2000/svg">
<path d="M10.2011 7.62469C10.0373 7.45984 9.88777 7.28184 9.75405 7.09251C9.70581 7.02915 9.66402 6.96582 9.62543 6.90245C9.21852 6.25438 9.00355 5.50723 9.00476 4.74523C9.00389 4.51804 9.02326 4.29119 9.06265 4.06735C9.14997 3.54464 9.33889 3.04342 9.61902 2.5912C9.66726 2.51833 9.7155 2.4423 9.76694 2.36947C9.86316 2.23539 9.83941 2.05115 9.71226 1.94498C9.42342 1.7077 9.05926 1.5777 8.68314 1.57751H1.60799C0.719936 1.57751 0 2.28662 0 3.16139V16.1491C0 17.0238 0.719936 17.733 1.60799 17.733H8.6831C9.57116 17.733 10.2911 17.0238 10.2911 16.1491V7.84327C10.2908 7.76171 10.2585 7.68342 10.2011 7.62469ZM9.64789 16.149C9.64789 16.6739 9.21592 17.0994 8.6831 17.0994H1.60799C1.07517 17.0994 0.643205 16.6739 0.643205 16.149V3.16139C0.643205 2.63656 1.07514 2.21107 1.60799 2.21107H8.6831C8.81568 2.21003 8.94706 2.23591 9.06902 2.2871C8.7483 2.80142 8.53002 3.3712 8.42581 3.96601C8.38157 4.22344 8.36005 4.48415 8.36148 4.74527C8.36061 5.62721 8.61014 6.49181 9.08187 7.24145C9.13011 7.31747 9.17835 7.3935 9.22979 7.46002C9.35653 7.64069 9.49624 7.8122 9.64785 7.97319V16.149H9.64789Z" fill="#222222"/>
<path d="M3.21595 17.0994H1.60796C1.43034 17.0994 1.28638 17.2412 1.28638 17.4161V18.0497C1.28638 18.5745 1.71831 19 2.25117 19H2.57275C3.10557 19 3.53754 18.5745 3.53754 18.0497V17.4161C3.53754 17.2412 3.39357 17.0994 3.21595 17.0994ZM2.89433 18.0497C2.89433 18.2246 2.75033 18.3664 2.57275 18.3664H2.25117C2.07355 18.3664 1.92958 18.2246 1.92958 18.0497V17.7329H2.89437V18.0497H2.89433Z" fill="#222222"/>
<path d="M8.68297 17.0994H7.07497C6.89735 17.0994 6.75339 17.2412 6.75339 17.4161V18.0497C6.75339 18.5745 7.18536 19 7.71818 19H8.03976C8.57258 19 9.00455 18.5745 9.00455 18.0497V17.4161C9.00459 17.2412 8.86058 17.0994 8.68297 17.0994ZM8.36138 18.0497C8.36138 18.2246 8.21742 18.3664 8.0398 18.3664H7.71821C7.5406 18.3664 7.39663 18.2246 7.39663 18.0497V17.7329H8.36142V18.0497H8.36138Z" fill="#222222"/>
<path d="M9.49348 6.96265H0.321584C0.143965 6.96265 0 7.10445 0 7.27941C0 7.45436 0.143965 7.59617 0.321584 7.59617H9.49352C9.67114 7.59617 9.81511 7.45436 9.81511 7.27941C9.81511 7.10445 9.6711 6.96265 9.49348 6.96265Z" fill="#222222"/>
<path d="M1.60796 8.22974C1.43034 8.22974 1.28638 8.37154 1.28638 8.5465V10.4471C1.28638 10.6221 1.43034 10.7639 1.60796 10.7639C1.78558 10.7639 1.92954 10.6221 1.92954 10.4471V8.5465C1.92954 8.37154 1.78558 8.22974 1.60796 8.22974Z" fill="#222222"/>
<path d="M1.60796 3.79492C1.43034 3.79492 1.28638 3.93673 1.28638 4.11168V6.01232C1.28638 6.18727 1.43034 6.32908 1.60796 6.32908C1.78558 6.32908 1.92954 6.18727 1.92954 6.01232V4.11168C1.92954 3.93676 1.78558 3.79492 1.60796 3.79492Z" fill="#222222"/>
<path d="M15.9645 0.87478C13.7905 -0.642239 10.7797 -0.136158 9.23957 2.00518C9.18169 2.08755 9.127 2.16989 9.06912 2.25861C8.74497 2.78158 8.52653 3.36135 8.42591 3.96602C8.38167 4.22346 8.36015 4.48417 8.36158 4.74529C8.35977 5.62693 8.60817 6.49149 9.07873 7.24147C9.12697 7.31749 9.1752 7.39352 9.22665 7.46004C9.37966 7.67639 9.55072 7.87985 9.73799 8.06824C9.88361 8.21591 10.0394 8.35352 10.2043 8.48004C11.0525 9.14162 12.1035 9.50011 13.1855 9.49688C14.2675 9.50037 15.3186 9.14184 16.1667 8.48004C16.5277 8.19902 16.846 7.8686 17.112 7.4988C18.6522 5.35746 18.1384 2.3918 15.9645 0.87478ZM16.481 7.26775C15.06 9.06044 12.4328 9.37909 10.6128 7.97949C10.4672 7.87102 10.3296 7.75245 10.2012 7.62471C10.0374 7.45985 9.88787 7.28186 9.75415 7.09253C9.70591 7.02917 9.66412 6.96584 9.62553 6.90247C9.21862 6.2544 9.00365 5.50725 9.00486 4.74525C9.00524 4.51903 9.0257 4.29325 9.06595 4.07052C9.15327 3.54781 9.3422 3.04659 9.62232 2.59437C9.67056 2.5215 9.7188 2.44548 9.77025 2.37264C10.5531 1.27874 11.8268 0.627772 13.1856 0.627215C15.4946 0.627215 17.3663 2.47094 17.3663 4.74525C17.3637 5.6596 17.0522 6.54707 16.481 7.26775Z" fill="#222222"/>
<path d="M13.1854 1.26074C13.0078 1.26074 12.8638 1.40255 12.8638 1.5775V7.91297C12.8638 8.08792 13.0078 8.22973 13.1854 8.22973C13.363 8.22973 13.507 8.08789 13.507 7.91297V1.5775C13.507 1.40255 13.363 1.26074 13.1854 1.26074Z" fill="#222222"/>
<path d="M13.3656 2.26495L12.4008 1.63139C12.2598 1.54928 12.0786 1.58469 11.9801 1.71365C11.8734 1.85345 11.9019 2.05205 12.0438 2.15722L13.0086 2.79078C13.0609 2.82541 13.1225 2.84416 13.1855 2.84464C13.2928 2.84486 13.3932 2.79234 13.4531 2.70454C13.5522 2.55936 13.513 2.36254 13.3656 2.26495Z" fill="#222222"/>
<path d="M14.4106 1.74289C14.3202 1.59229 14.123 1.54239 13.9701 1.63141L13.0053 2.26497C12.9162 2.32396 12.8629 2.42285 12.8631 2.52861C12.8635 2.70356 13.0078 2.84507 13.1854 2.84466C13.2484 2.84418 13.31 2.82543 13.3623 2.7908L14.3271 2.15724C14.458 2.06024 14.494 1.8818 14.4106 1.74289Z" fill="#222222"/>
<path d="M13.4555 6.76248C13.3488 6.62268 13.1471 6.59458 13.0052 6.69974L12.0404 7.3333C11.9513 7.39229 11.898 7.49118 11.8982 7.59694C11.8986 7.7719 12.0429 7.9134 12.2205 7.913C12.2835 7.91251 12.345 7.89377 12.3974 7.85913L13.3621 7.22557C13.3724 7.2196 13.3823 7.2131 13.3918 7.20605C13.5338 7.10088 13.5623 6.90232 13.4555 6.76248Z" fill="#222222"/>
<path d="M14.3302 7.33331L13.3655 6.69975C13.2244 6.61764 13.0433 6.65305 12.9448 6.78201C12.838 6.92181 12.8666 7.12041 13.0085 7.22558L13.9733 7.85914C14.0256 7.89377 14.0871 7.91252 14.1501 7.913C14.2575 7.91322 14.3579 7.8607 14.4178 7.7729C14.5169 7.62768 14.4776 7.43086 14.3302 7.33331Z" fill="#222222"/>
<path d="M16.4014 4.42847H9.96947C9.79185 4.42847 9.64789 4.57027 9.64789 4.74523C9.64789 4.92018 9.79185 5.06199 9.96947 5.06199H16.4014C16.579 5.06199 16.723 4.92018 16.723 4.74523C16.723 4.57027 16.579 4.42847 16.4014 4.42847Z" fill="#222222"/>
<path d="M11.1177 4.50834C10.9757 4.40317 10.7741 4.43127 10.6673 4.57107L10.0241 5.52139C9.98987 5.57266 9.97144 5.63261 9.9711 5.69397C9.9702 5.86892 10.1134 6.01147 10.291 6.01236C10.398 6.01251 10.498 5.96028 10.558 5.87297L11.2012 4.92265C11.2846 4.78378 11.2486 4.60534 11.1177 4.50834Z" fill="#222222"/>
<path d="M11.2011 4.56792L10.5579 3.6176C10.4594 3.48864 10.2783 3.45319 10.1373 3.53534C9.98436 3.62435 9.93371 3.81861 10.0241 3.96922L10.6673 4.91954C10.7265 5.00803 10.8266 5.06153 10.9342 5.06208C10.9986 5.06219 11.0615 5.04326 11.1148 5.00774C11.262 4.90977 11.3006 4.71284 11.2011 4.56792Z" fill="#222222"/>
<path d="M16.3469 5.51823L15.7037 4.56792C15.6052 4.43895 15.4241 4.4035 15.283 4.48565C15.1301 4.57467 15.0795 4.76893 15.1699 4.91953L15.8131 5.86985C15.8722 5.95835 15.9724 6.01184 16.08 6.0124C16.1444 6.01251 16.2073 5.99358 16.2606 5.95805C16.4077 5.86009 16.4464 5.66316 16.3469 5.51823Z" fill="#222222"/>
<path d="M16.2632 3.55802C16.1212 3.45285 15.9196 3.48096 15.8128 3.62076L15.1696 4.57107C15.1354 4.62234 15.1169 4.68229 15.1166 4.74365C15.1157 4.91861 15.2589 5.06116 15.4366 5.06205C15.5435 5.0622 15.6436 5.00997 15.7035 4.92265L16.3467 3.97234C16.4301 3.83346 16.3941 3.65502 16.2632 3.55802Z" fill="#222222"/>
<path d="M15.0186 6.10741L11.8026 2.9397C11.6822 2.83813 11.5047 2.83813 11.3843 2.9397C11.2493 3.05348 11.2337 3.25345 11.3492 3.38635L14.5651 6.55406C14.6258 6.61335 14.708 6.64642 14.7935 6.64594C14.8761 6.64479 14.9551 6.61238 15.0141 6.5554C15.1409 6.4329 15.1429 6.23233 15.0186 6.10741Z" fill="#222222"/>
<path d="M15.0185 2.97108C14.903 2.83819 14.7 2.82274 14.5651 2.93652L11.3491 6.10424C11.2878 6.16415 11.2535 6.24589 11.254 6.33098C11.255 6.50593 11.3999 6.64692 11.5775 6.64592C11.6623 6.64473 11.7432 6.61058 11.8026 6.55089L15.0185 3.38317C15.1216 3.26457 15.1216 3.08969 15.0185 2.97108Z" fill="#222222"/>
</svg>
