<svg width="18" height="18" viewBox="0 0 18 18" fill="none" xmlns="http://www.w3.org/2000/svg">
<path d="M2.8125 15.75H15.1875C15.2621 15.75 15.3336 15.7204 15.3864 15.6676C15.4391 15.6149 15.4688 15.5433 15.4688 15.4688V5.34375C15.4688 5.26916 15.4391 5.19762 15.3864 5.14488C15.3336 5.09213 15.2621 5.0625 15.1875 5.0625H2.8125C2.73791 5.0625 2.66637 5.09213 2.61363 5.14488C2.56088 5.19762 2.53125 5.26916 2.53125 5.34375V15.4688C2.53125 15.5433 2.56088 15.6149 2.61363 15.6676C2.66637 15.7204 2.73791 15.75 2.8125 15.75ZM4.5 5.625H13.5C13.5746 5.625 13.6461 5.65463 13.6989 5.70738C13.7516 5.76012 13.7812 5.83166 13.7812 5.90625C13.7812 5.98084 13.7516 6.05238 13.6989 6.10512C13.6461 6.15787 13.5746 6.1875 13.5 6.1875H4.5C4.42541 6.1875 4.35387 6.15787 4.30113 6.10512C4.24838 6.05238 4.21875 5.98084 4.21875 5.90625C4.21875 5.83166 4.24838 5.76012 4.30113 5.70738C4.35387 5.65463 4.42541 5.625 4.5 5.625ZM3.09375 5.625H3.70463C3.65957 5.75225 3.64571 5.88846 3.66422 6.02218C3.68273 6.15591 3.73307 6.28323 3.811 6.39346C3.88893 6.50369 3.99218 6.5936 4.11208 6.65564C4.23197 6.71769 4.365 6.75004 4.5 6.75H13.5C13.635 6.75004 13.768 6.71769 13.8879 6.65564C14.0078 6.5936 14.1111 6.50369 14.189 6.39346C14.2669 6.28323 14.3173 6.15591 14.3358 6.02218C14.3543 5.88846 14.3404 5.75225 14.2954 5.625H14.9062V14.0625H12.9375V12.8891C13.1251 12.8227 13.2831 12.6922 13.3838 12.5205C13.4844 12.3489 13.5212 12.1472 13.4875 11.9511C13.4539 11.7549 13.352 11.577 13.1999 11.4488C13.0478 11.3205 12.8552 11.2501 12.6562 11.25H12.2297C11.9988 10.9036 11.6858 10.6196 11.3186 10.4233C10.9514 10.227 10.5414 10.1245 10.125 10.125H7.875C7.45886 10.1258 7.04929 10.2289 6.68228 10.425C6.31527 10.6212 6.00205 10.9045 5.77013 11.25H5.34375C5.14477 11.2501 4.95223 11.3205 4.80012 11.4488C4.64802 11.577 4.54614 11.7549 4.51249 11.9511C4.47884 12.1472 4.51558 12.3489 4.61622 12.5205C4.71687 12.6922 4.87493 12.8227 5.0625 12.8891V14.0625H3.09375V5.625ZM5.34375 12.375C5.26916 12.375 5.19762 12.3454 5.14488 12.2926C5.09213 12.2399 5.0625 12.1683 5.0625 12.0938C5.0625 12.0192 5.09213 11.9476 5.14488 11.8949C5.19762 11.8421 5.26916 11.8125 5.34375 11.8125H12.6562C12.7308 11.8125 12.8024 11.8421 12.8551 11.8949C12.9079 11.9476 12.9375 12.0192 12.9375 12.0938C12.9375 12.1683 12.9079 12.2399 12.8551 12.2926C12.8024 12.3454 12.7308 12.375 12.6562 12.375H5.34375ZM12.375 12.9375V14.0625H5.625V12.9375H12.375ZM6.49814 11.25C6.86631 10.8903 7.3603 10.6885 7.875 10.6875H10.125C10.64 10.6871 11.1345 10.8891 11.502 11.25H6.49814ZM3.09375 14.625H14.9062V15.1875H3.09375V14.625Z" fill="#222222"/>
<path d="M16.4531 0.5625H1.54688C1.28589 0.562798 1.03569 0.666604 0.851146 0.851146C0.666604 1.03569 0.562798 1.28589 0.5625 1.54688V16.4531C0.562798 16.7141 0.666604 16.9643 0.851146 17.1489C1.03569 17.3334 1.28589 17.4372 1.54688 17.4375H16.4531C16.7141 17.4372 16.9643 17.3334 17.1489 17.1489C17.3334 16.9643 17.4372 16.7141 17.4375 16.4531V1.54688C17.4372 1.28589 17.3334 1.03569 17.1489 0.851146C16.9643 0.666604 16.7141 0.562798 16.4531 0.5625ZM16.875 16.4531C16.8749 16.565 16.8304 16.6722 16.7513 16.7513C16.6722 16.8304 16.565 16.8749 16.4531 16.875H1.54688C1.43502 16.8749 1.32779 16.8304 1.2487 16.7513C1.16961 16.6722 1.12512 16.565 1.125 16.4531V4.5H16.875V16.4531ZM16.875 3.9375H1.125V1.54688C1.12512 1.43502 1.16961 1.32779 1.2487 1.2487C1.32779 1.16961 1.43502 1.12512 1.54688 1.125H16.4531C16.565 1.12512 16.6722 1.16961 16.7513 1.2487C16.8304 1.32779 16.8749 1.43502 16.875 1.54688V3.9375Z" fill="#222222"/>
<path d="M9 1.6875C8.83312 1.6875 8.66999 1.73699 8.53124 1.8297C8.39248 1.92241 8.28434 2.05419 8.22048 2.20836C8.15662 2.36254 8.13991 2.53219 8.17246 2.69586C8.20502 2.85953 8.28538 3.00987 8.40338 3.12787C8.52138 3.24587 8.67172 3.32623 8.83539 3.35879C8.99906 3.39134 9.16871 3.37463 9.32289 3.31077C9.47707 3.24691 9.60884 3.13877 9.70155 3.00001C9.79427 2.86126 9.84375 2.69813 9.84375 2.53125C9.8435 2.30755 9.75453 2.09309 9.59635 1.93491C9.43817 1.77673 9.2237 1.68775 9 1.6875ZM9 2.8125C8.94438 2.8125 8.89 2.796 8.84375 2.7651C8.7975 2.7342 8.76145 2.69027 8.74016 2.63888C8.71887 2.58749 8.7133 2.53094 8.72416 2.47638C8.73501 2.42182 8.76179 2.37171 8.80113 2.33238C8.84046 2.29304 8.89057 2.26626 8.94513 2.2554C8.99969 2.24455 9.05624 2.25012 9.10763 2.27141C9.15902 2.2927 9.20295 2.32874 9.23385 2.375C9.26476 2.42125 9.28125 2.47562 9.28125 2.53125C9.28117 2.60582 9.25151 2.6773 9.19878 2.73003C9.14606 2.78276 9.07457 2.81242 9 2.8125Z" fill="#222222"/>
<path d="M6.1875 1.6875C6.02062 1.6875 5.85749 1.73699 5.71874 1.8297C5.57998 1.92241 5.47184 2.05419 5.40798 2.20836C5.34412 2.36254 5.32741 2.53219 5.35996 2.69586C5.39252 2.85953 5.47288 3.00987 5.59088 3.12787C5.70888 3.24587 5.85922 3.32623 6.02289 3.35879C6.18656 3.39134 6.35621 3.37463 6.51039 3.31077C6.66456 3.24691 6.79634 3.13877 6.88905 3.00001C6.98177 2.86126 7.03125 2.69813 7.03125 2.53125C7.031 2.30755 6.94202 2.09309 6.78384 1.93491C6.62566 1.77673 6.4112 1.68775 6.1875 1.6875ZM6.1875 2.8125C6.13187 2.8125 6.0775 2.796 6.03125 2.7651C5.98499 2.7342 5.94895 2.69027 5.92766 2.63888C5.90637 2.58749 5.9008 2.53094 5.91165 2.47638C5.92251 2.42182 5.94929 2.37171 5.98863 2.33238C6.02796 2.29304 6.07807 2.26626 6.13263 2.2554C6.18719 2.24455 6.24374 2.25012 6.29513 2.27141C6.34652 2.2927 6.39045 2.32874 6.42135 2.375C6.45226 2.42125 6.46875 2.47562 6.46875 2.53125C6.46867 2.60582 6.43901 2.6773 6.38628 2.73003C6.33355 2.78276 6.26207 2.81242 6.1875 2.8125Z" fill="#222222"/>
<path d="M11.8125 1.6875C11.6456 1.6875 11.4825 1.73699 11.3437 1.8297C11.205 1.92241 11.0968 2.05419 11.033 2.20836C10.9691 2.36254 10.9524 2.53219 10.985 2.69586C11.0175 2.85953 11.0979 3.00987 11.2159 3.12787C11.3339 3.24587 11.4842 3.32623 11.6479 3.35879C11.8116 3.39134 11.9812 3.37463 12.1354 3.31077C12.2896 3.24691 12.4213 3.13877 12.5141 3.00001C12.6068 2.86126 12.6563 2.69813 12.6563 2.53125C12.656 2.30755 12.567 2.09309 12.4088 1.93491C12.2507 1.77673 12.0362 1.68775 11.8125 1.6875ZM11.8125 2.8125C11.7569 2.8125 11.7025 2.796 11.6562 2.7651C11.61 2.7342 11.5739 2.69027 11.5527 2.63888C11.5314 2.58749 11.5258 2.53094 11.5367 2.47638C11.5475 2.42182 11.5743 2.37171 11.6136 2.33238C11.653 2.29304 11.7031 2.26626 11.7576 2.2554C11.8122 2.24455 11.8687 2.25012 11.9201 2.27141C11.9715 2.2927 12.0154 2.32874 12.0464 2.375C12.0773 2.42125 12.0938 2.47562 12.0938 2.53125C12.0937 2.60582 12.064 2.6773 12.0113 2.73003C11.9586 2.78276 11.8871 2.81242 11.8125 2.8125Z" fill="#222222"/>
<path d="M8.85926 9.28123C8.85926 9.35582 8.88889 9.42736 8.94163 9.4801C8.99438 9.53284 9.06591 9.56248 9.14051 9.56248C9.2151 9.56248 9.28663 9.53284 9.33938 9.4801C9.39212 9.42736 9.42175 9.35582 9.42175 9.28123C9.42494 9.06825 9.36049 8.85975 9.23768 8.68571C9.17503 8.5865 9.14051 8.53184 9.14051 8.3904C9.14051 8.24897 9.17499 8.19451 9.23768 8.0953C9.36046 7.92133 9.4249 7.71291 9.42175 7.5C9.42175 7.42541 9.39212 7.35387 9.33938 7.30113C9.28663 7.24838 9.2151 7.21875 9.14051 7.21875C9.06591 7.21875 8.99438 7.24838 8.94163 7.30113C8.88889 7.35387 8.85926 7.42541 8.85926 7.5C8.85926 7.64126 8.82477 7.69589 8.76208 7.7951C8.64216 7.97053 8.578 8.17808 8.578 8.39058C8.578 8.60308 8.64216 8.81063 8.76208 8.98605C8.82473 9.08527 8.85926 9.13993 8.85926 9.28123Z" fill="#222222"/>
<path d="M10.4062 9.28123C10.4062 9.35582 10.4358 9.42736 10.4885 9.4801C10.5413 9.53284 10.6128 9.56248 10.6874 9.56248C10.762 9.56248 10.8335 9.53284 10.8863 9.4801C10.939 9.42736 10.9687 9.35582 10.9687 9.28123C10.9718 9.06825 10.9074 8.85975 10.7846 8.68571C10.7219 8.5865 10.6874 8.53184 10.6874 8.3904C10.6874 8.24897 10.7219 8.19451 10.7846 8.0953C10.9074 7.92133 10.9718 7.71291 10.9687 7.5C10.9687 7.42541 10.939 7.35387 10.8863 7.30113C10.8335 7.24838 10.762 7.21875 10.6874 7.21875C10.6128 7.21875 10.5413 7.24838 10.4885 7.30113C10.4358 7.35387 10.4062 7.42541 10.4062 7.5C10.4062 7.64126 10.3717 7.69589 10.309 7.7951C10.1891 7.97053 10.1249 8.17808 10.1249 8.39058C10.1249 8.60308 10.1891 8.81063 10.309 8.98605C10.3716 9.08527 10.4062 9.13993 10.4062 9.28123Z" fill="#222222"/>
<path d="M7.31238 9.28123C7.31238 9.35582 7.34201 9.42736 7.39476 9.4801C7.4475 9.53284 7.51904 9.56248 7.59363 9.56248C7.66822 9.56248 7.73976 9.53284 7.79251 9.4801C7.84525 9.42736 7.87488 9.35582 7.87488 9.28123C7.87807 9.06825 7.81362 8.85975 7.6908 8.68571C7.62816 8.5865 7.59363 8.53184 7.59363 8.3904C7.59363 8.24897 7.62812 8.19451 7.6908 8.0953C7.81358 7.92133 7.87803 7.71291 7.87488 7.5C7.87488 7.42541 7.84525 7.35387 7.79251 7.30113C7.73976 7.24838 7.66822 7.21875 7.59363 7.21875C7.51904 7.21875 7.4475 7.24838 7.39476 7.30113C7.34201 7.35387 7.31238 7.42541 7.31238 7.5C7.31238 7.64126 7.27789 7.69589 7.21521 7.7951C7.09529 7.97053 7.03113 8.17808 7.03113 8.39058C7.03113 8.60308 7.09529 8.81063 7.21521 8.98605C7.27786 9.08527 7.31238 9.13993 7.31238 9.28123Z" fill="#222222"/>
</svg>
