<svg width="18" height="18" viewBox="0 0 18 18" fill="none" xmlns="http://www.w3.org/2000/svg">
<path d="M17.0664 14.2095H2.23988L6.67942 9.5415H9.74689C9.93253 9.5415 10.083 9.39103 10.083 9.2054C10.083 9.01976 9.93253 8.8693 9.74689 8.8693H6.87137V0.84025C6.87137 0.654611 6.72091 0.50415 6.53527 0.50415C6.34963 0.50415 6.19917 0.654611 6.19917 0.84025V9.07111L1.31224 14.2095H0.93361C0.418817 14.2095 0 14.6284 0 15.1432V16.5622C0 17.077 0.418817 17.4959 0.93361 17.4959H17.0664C17.5812 17.4959 18 17.077 18 16.5622V15.1432C18 14.6284 17.5812 14.2095 17.0664 14.2095ZM17.3278 16.5622C17.3278 16.7064 17.2105 16.8237 17.0664 16.8237H0.93361C0.789461 16.8237 0.672199 16.7064 0.672199 16.5622V15.1432C0.672199 14.999 0.789461 14.8817 0.93361 14.8817H17.0664C17.2105 14.8817 17.3278 14.999 17.3278 15.1432V16.5622ZM11.1286 0.84025C11.1286 0.654611 11.2791 0.50415 11.4647 0.50415C11.6504 0.50415 11.8008 0.654611 11.8008 0.84025V9.07111L15.5926 13.0581C15.7968 13.2727 15.6419 13.6258 15.3491 13.6258C15.2603 13.6258 15.1716 13.5907 15.1055 13.5213C10.8996 9.09893 11.1445 9.40123 11.1301 9.23464C11.1278 9.20823 11.1286 0.903175 11.1286 0.84025ZM12.5477 15.8527C12.5477 16.0383 12.3973 16.1888 12.2116 16.1888H12.0622C11.8766 16.1888 11.7261 16.0383 11.7261 15.8527C11.7261 15.6671 11.8766 15.5166 12.0622 15.5166H12.2116C12.3973 15.5166 12.5477 15.6671 12.5477 15.8527ZM14.0415 15.8527C14.0415 16.0383 13.891 16.1888 13.7054 16.1888H13.556C13.3704 16.1888 13.2199 16.0383 13.2199 15.8527C13.2199 15.6671 13.3704 15.5166 13.556 15.5166H13.7054C13.891 15.5166 14.0415 15.6671 14.0415 15.8527ZM15.5353 15.8527C15.5353 16.0383 15.3848 16.1888 15.1992 16.1888H15.0498C14.8642 16.1888 14.7137 16.0383 14.7137 15.8527C14.7137 15.6671 14.8642 15.5166 15.0498 15.5166H15.1992C15.3848 15.5166 15.5353 15.6671 15.5353 15.8527Z" fill="#222222"/>
<clipPath id="clip0">
<rect width="18" height="18" fill="white"/>
</clipPath>
</svg>
