<svg width="18" height="25" viewBox="0 0 18 25" fill="none" xmlns="http://www.w3.org/2000/svg">
<path d="M14.6745 7.22839C14.3521 6.91146 13.8303 6.9113 13.5078 7.22844C12.9892 7.73849 13.36 8.61292 14.0912 8.61292C14.8214 8.61292 15.1936 7.73896 14.6745 7.22839ZM16.1736 5.75443C16.3391 5.91714 16.3391 6.18094 16.1736 6.34365C16.008 6.50641 15.7398 6.50635 15.5743 6.34365C14.7564 5.53958 13.4258 5.53958 12.608 6.34365C12.4425 6.50635 12.1742 6.50635 12.0087 6.34365C11.8432 6.18094 11.8432 5.91714 12.0087 5.75443C13.157 4.62547 15.0253 4.62547 16.1736 5.75443ZM17.5757 4.7926C17.4672 4.7926 17.3587 4.75193 17.276 4.67057C15.5158 2.9399 12.6667 2.93974 10.9063 4.67057C10.7407 4.83328 10.4725 4.83328 10.3069 4.67057C10.1414 4.50786 10.1414 4.24406 10.3069 4.08135C12.3985 2.02495 15.7837 2.02479 17.8754 4.08135C18.1432 4.34469 17.9497 4.7926 17.5757 4.7926ZM14.5149 10.4167V22.9167C14.5149 24.0654 13.5644 25 12.396 25H2.11897C0.950569 25 0 24.0654 0 22.9167V2.08333C0 0.934583 0.950569 0 2.11897 0H12.396C12.9449 0 13.4655 0.205573 13.8618 0.578854C14.0307 0.738073 14.0365 1.00182 13.8745 1.16797C13.7126 1.33411 13.4443 1.33969 13.2753 1.18057C13.0376 0.956667 12.7253 0.833333 12.3959 0.833333H2.11891C1.41791 0.833333 0.847534 1.39411 0.847534 2.08333V22.9167C0.847534 23.6059 1.41791 24.1667 2.11891 24.1667H12.3959C13.0969 24.1667 13.6673 23.6059 13.6673 22.9167V10.8333H3.33732C3.10328 10.8333 2.91353 10.6468 2.91353 10.4167C2.91353 10.1866 3.10328 10 3.33732 10H14.0911C14.3252 10 14.5149 10.1866 14.5149 10.4167ZM3.33737 4.42708C3.57141 4.42708 3.76117 4.61365 3.76117 4.84375V6.82292C3.76117 7.05302 3.57141 7.23958 3.33737 7.23958C3.10333 7.23958 2.91358 7.05302 2.91358 6.82292V4.84375C2.91358 4.61365 3.10333 4.42708 3.33737 4.42708ZM2.91358 19.3229V13.9062C2.91358 13.6761 3.10333 13.4896 3.33737 13.4896C3.57141 13.4896 3.76117 13.6761 3.76117 13.9062V19.3229C3.76117 19.553 3.57141 19.7396 3.33737 19.7396C3.10333 19.7396 2.91358 19.553 2.91358 19.3229Z" fill="#222222"/>
</svg>
