<svg width="173" height="60" fill="none" xmlns="http://www.w3.org/2000/svg"><g clip-path="url(#clip0)" fill="#fff"><path d="M33.232 23.782H17.467c-.114-.15-.227-.303-.36-.454.246-.076.53-.076.72-.227l16.218-11.51C39.262 7.864 44.48 4.16 49.678.397c.68-.49 1.153-.548 1.89-.057 3.422 2.29 6.9 4.52 10.378 6.75.208.132.435.227.794.416v-4.63h6.41v2.89c0 1.645-.04 3.27.036 4.916.02.36.284.813.586 1.02 2.174 1.513 4.386 2.987 6.598 4.48.075.057.113.19.245.435-2.21 0-4.31.095-6.39-.056-.698-.056-1.38-.68-2.06-1.058-5.5-3.157-11-6.295-16.502-9.47-.737-.435-1.304-.51-2.08.018a5570.814 5570.814 0 01-22.04 14.783c-.02.02-.02.057-.04.19h9.132v26.499h1.115c4.575 0 9.13-.075 13.705.02 3.95.075 7.902.226 11.834.585 6.142.528 12.286 1.304 18.278 2.835 2.193.567 4.33 1.342 6.484 2.04.15.058.283.17.397.474-1.21.13-2.46.13-3.63.434-2.515.623-4.594-.832-6.88-1.248-4.236-.775-8.413-1.777-12.686-2.325-4.65-.604-9.338-.963-14.007-1.133-5.557-.208-11.134-.133-16.71-.17-.02 0-.057.037-.303.19h1.04c2.892.074 5.784.055 8.676.244 3.516.228 7.032.606 10.567.91 5.16.433 10.246 1.36 15.255 2.683 2.155.567 4.235 1.474 6.333 2.25.302.113.567.32.87.49-1.966 1.362-3.838 2.666-5.804 4.027-1.057-1.758-2.853-2.948-4.8-3.856a36.324 36.324 0 00-9.698-3.005 317.639 317.639 0 00-11.928-1.684c-2.136-.264-4.31-.36-6.484-.397-8.147-.152-16.294-.34-24.442-.36-4.045 0-8.09.32-12.136.492-.548.018-1.096 0-1.644 0-.02-.095-.02-.21-.038-.303.794-.114 1.588-.228 2.382-.322a1085.2 1085.2 0 017.807-.927c1.34-.15 2.664-.282 4.006-.396 2.95-.264 5.898-.605 8.866-.756 3.08-.17 6.163-.19 9.244-.264 1.248-.038 1.304-.02 1.266-1.248-.037-1.172-.208-2.344-.32-3.535-.02-.226 0-.434 0-.66 0-6.106.018-12.23.018-18.337.038-.132.02-.227-.038-.49h.002zm109.053-.396v14.347c.076.02.17.038.246.057 1.362-4.8 2.742-9.603 4.139-14.48.474.02.965.057 1.457.057 1.285.02 2.57.056 3.875.02.983-.04 1.436.282 1.455 1.284.02 1.003-.02 2.024-.02 3.026 0 5.122.02 10.264.04 15.387 0 1.418-.265 1.682-1.702 1.57-.85-.058-1.7-.058-2.552-.058-.813.02-1.626.076-2.552.114V29.963c-.056 0-.13-.02-.188-.02-1.36 4.916-2.74 9.83-4.12 14.802-1.986 0-3.933.038-5.86-.037-.34-.02-.682-.587-.946-.965-.114-.152-.02-.435-.02-.643V25.068c0-1.474.38-1.777 1.835-1.7 1.606.072 3.213.017 4.914.017l-.001.001zm-11.951 9.848c2.91 1.625 3.648 4.158 3.1 7.183-.473 2.533-2.042 4.045-4.632 4.178-3.27.17-6.54.15-9.81.19-.284 0-.643-.247-.813-.474-.19-.245-.266-.642-.266-.963-.02-6.162-.02-12.325 0-18.506.001-1.152.417-1.569 1.589-1.552 2.93.038 5.86.02 8.77.17 2.29.114 3.84 1.4 4.368 3.27.68 2.402-.038 4.784-1.815 6.126-.15.113-.283.227-.49.378h-.001zm-5.974 9.3c1.74-.244 2.76-1.682 2.76-3.761 0-2.06-1.04-3.48-2.76-3.706v7.467zm0-9.622c1.72-.226 2.27-2.306 2.212-3.875-.076-2.04-.775-3.1-2.212-3.402v7.277zm-7.946 1.398c-.397 1.646-.624 3.593-1.324 5.33-1.474 3.707-5.01 5.749-9.035 5.52-3.498-.187-6.352-2.626-7.486-6.463-.908-3.1-.89-6.22.037-9.302 1.248-4.082 4.461-6.427 8.658-6.407 3.876.02 6.995 2.363 8.204 6.333.473 1.512.605 3.12.946 4.99zm-8.526 7.808c.303-.718.662-1.38.85-2.08.644-2.286.568-4.63.284-6.937-.226-1.758-.7-3.497-1.228-5.198-.227-.718-.85-1.304-1.324-2.004-2.703 3.31-1.758 13.97 1.418 16.22v-.001z"/><path d="M75.707 34.065c-.094 2.192-.453 4.272-1.474 6.22-2.04 3.893-6.522 5.802-10.66 4.536-3.14-.964-4.784-3.365-5.654-6.333-.85-2.93-.813-5.917.037-8.847 1.249-4.33 4.634-6.805 8.961-6.635 4.14.15 7.316 2.93 8.28 7.354.265 1.19.36 2.457.51 3.705zm-8.393 8.128c.34-.926.738-1.72.927-2.57.606-2.496.473-5.01.076-7.505-.245-1.513-.7-2.987-1.21-4.443-.226-.642-.812-1.172-1.323-1.852-1.115 1.682-1.304 3.327-1.418 4.99-.207 2.95 0 5.86 1.02 8.658.38 1.02.87 1.947 1.93 2.722h-.002zm12.073-6.88c0 2.382-.095 4.782.038 7.164.075 1.4-.586 2.117-1.683 2.892-.02-.453-.038-.774-.038-1.115 0-3.156-.056-6.294.02-9.45.037-1.532-.04-2.968-1.324-4.046 1.777-2.817 3.497-5.558 5.274-8.375 2.023 3.1 4.008 6.144 6.106 9.376.472-.926.832-1.607 1.172-2.287.945-1.854 1.91-3.687 2.835-5.54.246-.51.548-.643 1.097-.605 1.002.057 2.003.02 3.138.02v19.736c0 1.398-.303 1.682-1.683 1.663-1.626-.038-3.27 0-5.067 0V32.931c-.094-.02-.19-.038-.264-.057-1.55 3.007-3.102 5.994-4.727 9.113l-4.632-6.75c-.112.02-.188.058-.263.077h.001zm82.749-.643c.132 3.328.264 6.655.416 10.02h-2.95c-.85.02-1.7.038-2.55.076-1.192.037-1.552-.322-1.552-1.513.036-4.46.055-8.94.074-13.402.002-1.606-.036-3.213-.074-4.821-.017-1.36.36-1.7 1.72-1.662 1.664.038 3.328 0 5.03 0v6.9c2.342-2.534 4.592-4.973 6.917-7.468.472.567.945 1.115 1.455 1.72-.83.908-1.587 1.815-2.42 2.666-.415.434-.453.794-.226 1.342 1.53 3.478 2.987 6.994 4.537 10.472.34.737.36 1.21-.284 1.853-1.626 1.607-3.138 3.346-4.764 5.104-1.625-3.857-3.12-7.694-4.877-11.4-.152.02-.303.077-.454.114l.002-.001zM38.702 45.142c-.094-.983-.19-1.833-.302-2.873 1.23.303 1.342-.643 1.626-1.38 1.19-3.1 2.344-6.238 3.572-9.338.378-.964.435-1.777-.113-2.665-.208-.34-.34-.737-.548-1.17 1.91-1.799 3.818-3.576 5.728-5.371.037.095.207.378.32.68 2.383 6.03 4.764 12.042 7.127 18.072.265.662.416 1.323 1.456 1.19-.19.984-.36 1.854-.53 2.76-6.105-.49-12.154-.755-18.336.095zm2.874-2.948h7.164c-1.153-3.196-2.268-6.26-3.384-9.34-.094.038-.17.057-.264.095-1.153 3.043-2.306 6.087-3.516 9.244v.001z"/></g><defs><clipPath id="clip0"><path fill="#fff" d="M0 0h173v60H0z"/></clipPath></defs></svg>