<svg width="26" height="26" viewBox="0 0 26 26" fill="none" xmlns="http://www.w3.org/2000/svg">
<path d="M13 26C20.1797 26 26 20.1797 26 13C26 5.8203 20.1797 0 13 0C5.8203 0 0 5.8203 0 13C0 20.1797 5.8203 26 13 26Z" fill="#5F98D1"/>
<path d="M21.1155 7.48853H4.85252L10.7441 13.6232L12.4443 15.3447C11.5192 15.1332 11.462 15.0015 11.0521 14.6668C10.8371 14.4913 10.4217 14.0142 9.79079 13.3699C7.82145 11.3589 4.47974 7.94647 4.47974 7.94647V18.0429L4.89944 18.4626L4.85247 18.5115L12.3236 25.9826C12.5476 25.9941 12.7731 26 13 26C20.1797 26 26 20.1797 26 13C26 12.7844 25.9944 12.5701 25.9841 12.3571L21.1155 7.48853Z" fill="#3A6DA1"/>
<path d="M4.47974 7.94653V18.043L9.40338 12.9743L4.47974 7.94653Z" fill="white"/>
<path d="M21.5203 7.94653V18.043L16.6211 12.9947L21.5203 7.94653Z" fill="white"/>
<path d="M4.85254 7.48853H21.1155L14.7239 14.1438C14.269 14.6174 13.6407 14.8852 12.984 14.8852C12.3274 14.8852 11.6991 14.6174 11.2442 14.1438L4.85254 7.48853Z" fill="white"/>
<path d="M15.0926 14.498C14.5442 15.0689 13.7757 15.3965 12.984 15.3965C12.1924 15.3965 11.4238 15.069 10.8755 14.498L9.79137 13.3691L4.85254 18.5116H21.1155L16.1767 13.3691L15.0926 14.498Z" fill="white"/>
</svg>
