<svg width="173" height="60" viewBox="0 0 173 60" fill="none" xmlns="http://www.w3.org/2000/svg">
<g clip-path="url(#clip0)">
<path d="M33.232 23.7819H17.467C17.353 23.6319 17.24 23.4789 17.107 23.3279C17.353 23.2519 17.637 23.2519 17.827 23.1009L34.045 11.5909C39.262 7.8639 44.48 4.1599 49.678 0.396904C50.358 -0.0930965 50.831 -0.151096 51.568 0.339904C54.99 2.6299 58.468 4.8599 61.946 7.0899C62.154 7.2219 62.381 7.3169 62.74 7.5059V2.8759H69.15V5.7659C69.15 7.4109 69.11 9.0359 69.186 10.6819C69.206 11.0419 69.47 11.4949 69.772 11.7019C71.946 13.2149 74.158 14.6889 76.37 16.1819C76.445 16.2389 76.483 16.3719 76.615 16.6169C74.405 16.6169 72.305 16.7119 70.225 16.5609C69.527 16.5049 68.845 15.8809 68.165 15.5029C62.665 12.3459 57.165 9.2079 51.663 6.0329C50.926 5.5979 50.359 5.5229 49.583 6.0509C42.249 11.0039 34.896 15.9189 27.543 20.8339C27.523 20.8539 27.523 20.8909 27.503 21.0239H36.635V47.5229H37.75C42.325 47.5229 46.88 47.4479 51.455 47.5429C55.405 47.6179 59.357 47.7689 63.289 48.1279C69.431 48.6559 75.575 49.4319 81.567 50.9629C83.76 51.5299 85.897 52.3049 88.051 53.0029C88.201 53.0609 88.334 53.1729 88.448 53.4769C87.238 53.6069 85.988 53.6069 84.818 53.9109C82.303 54.5339 80.224 53.0789 77.938 52.6629C73.702 51.8879 69.525 50.8859 65.252 50.3379C60.602 49.7339 55.914 49.3749 51.245 49.2049C45.688 48.9969 40.111 49.0719 34.535 49.0349C34.515 49.0349 34.478 49.0719 34.232 49.2249H35.272C38.164 49.2989 41.056 49.2799 43.948 49.4689C47.464 49.6969 50.98 50.0749 54.515 50.3789C59.675 50.8119 64.761 51.7389 69.77 53.0619C71.925 53.6289 74.005 54.5359 76.103 55.3119C76.405 55.4249 76.67 55.6319 76.973 55.8019C75.007 57.1639 73.135 58.4679 71.169 59.8289C70.112 58.0709 68.316 56.8809 66.369 55.9729C63.293 54.5222 60.0284 53.5106 56.671 52.9679C52.706 52.3312 48.7293 51.7698 44.743 51.2839C42.607 51.0199 40.433 50.9239 38.259 50.8869C30.112 50.7349 21.965 50.5469 13.817 50.5269C9.77202 50.5269 5.72702 50.8469 1.68102 51.0189C1.13302 51.0369 0.585023 51.0189 0.0370234 51.0189C0.0170234 50.9239 0.0170234 50.8089 -0.000976562 50.7159C0.793023 50.6019 1.58702 50.4879 2.38102 50.3939C4.98902 50.0719 7.57902 49.7699 10.188 49.4669C11.528 49.3169 12.852 49.1849 14.194 49.0709C17.144 48.8069 20.092 48.4659 23.06 48.3149C26.14 48.1449 29.223 48.1249 32.304 48.0509C33.552 48.0129 33.608 48.0309 33.57 46.8029C33.533 45.6309 33.362 44.4589 33.25 43.2679C33.23 43.0419 33.25 42.8339 33.25 42.6079C33.25 36.5019 33.268 30.3779 33.268 24.2709C33.306 24.1389 33.288 24.0439 33.23 23.7809L33.232 23.7819Z" fill="white"/>
<path d="M142.285 23.3861V37.7331C142.361 37.7531 142.455 37.7711 142.531 37.7901C143.893 32.9901 145.273 28.1871 146.67 23.3101C147.144 23.3301 147.635 23.3671 148.127 23.3671C149.412 23.3871 150.697 23.4231 152.002 23.3871C152.985 23.3471 153.438 23.6691 153.457 24.6711C153.477 25.6741 153.437 26.6951 153.437 27.6971C153.437 32.8191 153.457 37.9611 153.477 43.0841C153.477 44.5021 153.212 44.7661 151.775 44.6541C150.925 44.5961 150.075 44.5961 149.223 44.5961C148.41 44.6161 147.597 44.6721 146.671 44.7101V29.9631C146.615 29.9631 146.541 29.9431 146.483 29.9431C145.123 34.8591 143.743 39.7731 142.363 44.7451C140.377 44.7451 138.43 44.7831 136.503 44.7081C136.163 44.6881 135.821 44.1211 135.557 43.7431C135.443 43.5911 135.537 43.3081 135.537 43.1001V25.0681C135.537 23.5941 135.917 23.2911 137.372 23.3681C138.978 23.4401 140.585 23.3851 142.286 23.3851L142.285 23.3861Z" fill="white"/>
<path d="M130.334 33.234C133.244 34.859 133.982 37.392 133.434 40.417C132.961 42.9501 131.392 44.462 128.802 44.595C125.532 44.765 122.262 44.745 118.992 44.785C118.708 44.785 118.349 44.538 118.179 44.311C117.989 44.066 117.913 43.669 117.913 43.348C117.893 37.186 117.893 31.023 117.913 24.842C117.914 23.69 118.33 23.273 119.502 23.29C122.432 23.328 125.362 23.31 128.272 23.46C130.562 23.574 132.112 24.86 132.64 26.73C133.32 29.132 132.602 31.514 130.825 32.856C130.675 32.969 130.542 33.083 130.335 33.234H130.334ZM124.36 42.534C126.1 42.29 127.12 40.852 127.12 38.773C127.12 36.713 126.08 35.293 124.36 35.067V42.534ZM124.36 32.912C126.08 32.686 126.63 30.606 126.572 29.037C126.496 26.997 125.797 25.937 124.36 25.635V32.912Z" fill="white"/>
<path d="M116.414 34.3109C116.017 35.9559 115.79 37.9029 115.09 39.6409C113.616 43.3469 110.08 45.3889 106.055 45.1609C102.557 44.9729 99.7029 42.5339 98.5689 38.6969C97.6609 35.5969 97.6789 32.4769 98.6059 29.3949C99.8539 25.3129 103.067 22.9679 107.264 22.9879C111.14 23.0079 114.259 25.3509 115.468 29.3209C115.941 30.8329 116.073 32.4409 116.414 34.3109ZM107.888 42.1179C108.191 41.3999 108.55 40.7379 108.738 40.0379C109.382 37.7519 109.306 35.4079 109.022 33.1009C108.796 31.3429 108.322 29.6039 107.794 27.9029C107.567 27.1849 106.944 26.5989 106.47 25.8989C103.767 29.2089 104.712 39.8689 107.888 42.1189V42.1179Z" fill="white"/>
<path d="M75.707 34.065C75.613 36.257 75.254 38.337 74.233 40.285C72.193 44.178 67.711 46.087 63.573 44.821C60.433 43.857 58.789 41.456 57.919 38.488C57.069 35.558 57.106 32.571 57.956 29.641C59.205 25.311 62.59 22.836 66.917 23.006C71.057 23.156 74.233 25.936 75.197 30.36C75.462 31.55 75.557 32.817 75.707 34.065ZM67.314 42.193C67.654 41.267 68.052 40.473 68.241 39.623C68.847 37.127 68.714 34.613 68.317 32.118C68.072 30.605 67.617 29.131 67.107 27.675C66.881 27.033 66.295 26.503 65.784 25.823C64.669 27.505 64.48 29.15 64.366 30.813C64.159 33.763 64.366 36.673 65.386 39.471C65.766 40.491 66.256 41.418 67.316 42.193H67.314Z" fill="white"/>
<path d="M79.387 35.3131C79.387 37.6951 79.292 40.0951 79.425 42.4771C79.5 43.8771 78.839 44.5941 77.742 45.3691C77.722 44.9161 77.704 44.5951 77.704 44.2541C77.704 41.0981 77.648 37.9601 77.724 34.8041C77.761 33.2721 77.684 31.8361 76.4 30.7581C78.177 27.9411 79.897 25.2001 81.674 22.3831C83.697 25.4831 85.682 28.5271 87.78 31.7591C88.252 30.8331 88.612 30.1521 88.952 29.4721C89.897 27.6181 90.862 25.7851 91.787 23.9321C92.033 23.4221 92.335 23.2891 92.884 23.3271C93.886 23.3841 94.887 23.3471 96.022 23.3471V43.0831C96.022 44.4811 95.719 44.7651 94.339 44.7461C92.713 44.7081 91.069 44.7461 89.272 44.7461V32.9311C89.178 32.9111 89.082 32.8931 89.008 32.8741C87.458 35.8811 85.906 38.8681 84.281 41.9871L79.649 35.2371C79.537 35.2571 79.461 35.2951 79.386 35.3141L79.387 35.3131Z" fill="white"/>
<path d="M162.136 34.67C162.268 37.998 162.4 41.325 162.552 44.69H159.602C158.752 44.71 157.902 44.728 157.052 44.766C155.86 44.803 155.5 44.444 155.5 43.253C155.536 38.793 155.555 34.313 155.574 29.851C155.576 28.245 155.538 26.638 155.5 25.03C155.483 23.67 155.86 23.33 157.22 23.368C158.884 23.406 160.548 23.368 162.25 23.368V30.268C164.592 27.734 166.842 25.295 169.167 22.8C169.639 23.367 170.112 23.915 170.622 24.52C169.792 25.428 169.035 26.335 168.202 27.186C167.787 27.62 167.749 27.98 167.976 28.528C169.506 32.006 170.963 35.522 172.513 39C172.853 39.737 172.873 40.21 172.229 40.853C170.603 42.46 169.091 44.199 167.465 45.957C165.84 42.1 164.345 38.263 162.588 34.557C162.436 34.577 162.285 34.634 162.134 34.671L162.136 34.67Z" fill="white"/>
<path d="M38.702 45.142C38.608 44.159 38.512 43.309 38.4 42.269C39.63 42.572 39.742 41.626 40.026 40.889C41.216 37.789 42.37 34.651 43.598 31.551C43.976 30.587 44.033 29.774 43.485 28.886C43.277 28.546 43.145 28.149 42.937 27.716C44.847 25.917 46.755 24.14 48.665 22.345C48.702 22.44 48.872 22.723 48.985 23.025C51.368 29.055 53.749 35.067 56.112 41.097C56.377 41.759 56.528 42.42 57.568 42.287C57.378 43.271 57.208 44.141 57.038 45.047C50.933 44.557 44.884 44.292 38.702 45.142ZM41.576 42.194H48.74C47.587 38.998 46.472 35.934 45.356 32.854C45.262 32.892 45.186 32.911 45.092 32.949C43.939 35.992 42.786 39.036 41.576 42.193V42.194Z" fill="white"/>
</g>
<defs>
<clipPath id="clip0">
<rect width="173" height="60" fill="white"/>
</clipPath>
</defs>
</svg>
